<svg width="1905" height="1363" viewBox="0 0 1905 1363" fill="none" xmlns="http://www.w3.org/2000/svg">
<path d="M1336.24 141.317C1348.71 131.445 1361.01 119.14 1374.08 108.772C1426.7 67.2764 1484.92 22.8574 1551.43 7.85343C1568.78 3.93943 1581.17 1.01843 1599.27 3.20943C1670.6 11.8384 1671.42 89.8474 1665.61 145.456C1664.75 153.691 1662.39 162.036 1661.46 170.291C1660.1 180.274 1659.4 190.78 1657.63 200.488C1649.69 241.844 1638.84 282.589 1625.17 322.421C1619.87 337.85 1613.59 353.203 1607.86 368.49C1605.16 375.704 1596.46 390.85 1595.24 397.415L1595.04 398.24C1592.73 403.087 1540.44 505.786 1540.03 503.744C1545.38 530.488 1553.15 580.151 1558.61 609.781C1560.49 619.967 1560.3 639.9 1564.94 647.791C1568.31 648.824 1572.46 645.462 1575.36 643.691C1632.71 611.052 1710.94 585.013 1776.69 602.476C1816.16 612.962 1827.54 633.942 1853.3 658.437C1908.24 710.679 1909.77 770.222 1887.21 838.372C1886.35 840.132 1884.53 843.632 1883.93 845.312C1876.91 869.232 1863.73 891.632 1850.14 912.312C1801.42 985.672 1736.24 1046.64 1659.8 1090.36C1661.93 1095.97 1661.98 1095.21 1668.52 1095.23L1669.93 1096.79C1668.54 1099.33 1669.52 1098.2 1666.28 1099.64L1668.21 1100.4L1668.1 1101.99C1660.97 1106.36 1660.97 1097.88 1653.07 1106.47C1649.38 1107.27 1650.8 1107.22 1646.84 1105.58C1646.04 1103.59 1646.2 1104.31 1646.16 1102.03C1642.98 1101.34 1642.02 1101.52 1638.86 1101.68C1611.63 1117.29 1586.56 1127.26 1556.09 1134.76C1548.96 1136.52 1540.71 1139.45 1533.6 1140.25C1537.32 1148.08 1549.11 1142.24 1556.66 1145.64L1557.2 1147.02C1556.31 1147.72 1535.33 1150.28 1531.17 1151.09C1529.63 1149.89 1528.38 1148.85 1526.9 1147.57L1526.37 1147.56L1526.16 1151.39C1522.77 1153.96 1521.62 1152.4 1518.24 1150.18C1505.21 1150.8 1495.11 1153.25 1482.48 1150.15C1480.89 1147.22 1479.87 1144.86 1477.52 1142.48C1453.41 1139.55 1441.47 1137.87 1418.54 1126.91C1409.48 1122.58 1398.79 1111.19 1392.25 1111.44C1387.08 1115.86 1385.06 1129.1 1378.95 1135.68C1356.61 1159.75 1325.69 1176.65 1299.72 1196.61C1249.05 1235.54 1194.4 1270.45 1143.79 1309.11L1143.18 1309.9C1124.69 1320.68 1102.37 1341.1 1083.36 1348.54C1044.51 1363.75 994.498 1331.98 982.768 1294.74C980.088 1294.47 977.158 1293.82 974.488 1293.32C969.698 1295.11 975.198 1294.16 971.388 1298.43L969.718 1297.24C968.588 1289.54 971.838 1291.36 972.098 1285.6C972.378 1279.16 969.228 1258.61 972.698 1254.06C977.348 1204.25 1010.35 1202.76 1013.81 1192.45C1008.44 1187.43 959.548 1174.17 948.728 1169.49C938.158 1166.92 928.238 1159.52 918.548 1156.22C909.138 1153.91 878.398 1127.05 872.398 1127.47C846.818 1129.27 817.918 1131.72 791.969 1132.12C785.425 1138.33 775.388 1151.1 767.71 1155.16C727.142 1177.01 671.914 1176.16 627.289 1176.38C582.855 1176.6 603.713 1173.54 582.413 1210.39C573.75 1225.37 549.785 1234.59 535.362 1243.91L535.165 1244.51C524.444 1248.76 499.253 1255.1 493.528 1257.87C491.928 1258.29 488.87 1259.2 487.367 1259.4C465.015 1261.45 440.565 1265.74 419.712 1267.02C370.616 1269.67 321.377 1266.82 272.915 1258.52C251.66 1254.74 233.017 1250.06 212.359 1245.85L209.09 1244.96C202.431 1241.6 196.826 1240.49 189.723 1238.18C177.492 1234.2 165.844 1230.03 153.837 1225.45C138.616 1219.65 126.875 1210.73 112.249 1203.92L111.335 1203.5C109.425 1200.65 85.1118 1186.22 80.0728 1181.82C30.7528 1138.73 8.2828 1093.05 15.7768 1027.21C16.6638 1019.77 16.9138 1015.77 19.4308 1008.78C21.9638 1005.1 22.8028 1000.75 24.6798 996.562C29.4878 985.832 39.7438 960.892 47.5208 953.052C47.3268 947.292 47.8588 945.112 47.0598 938.762C45.5468 936.762 45.4148 936.872 44.8908 934.472L46.5608 933.172L48.8338 933.492L49.9748 937.622C52.9568 940.212 52.7868 939.272 58.0898 939.222C75.5118 920.432 88.9408 907.342 108.925 891.482C109.733 885.162 110.17 883.882 109.176 877.522L110.359 876.422C116.947 878.202 118.419 878.502 125.287 878.282L126.876 878.222C130.901 876.052 135.616 873.032 139.467 870.492C157.519 858.552 176.901 848.112 194.773 836.002C201.049 821.952 204.188 806.702 209.883 792.482C251.758 687.938 322.11 606.849 421.954 555.311L424.823 553.541C429.327 552.496 457.87 539.095 466.803 535.878C509.617 520.458 545.004 515.59 590.128 514.24C599.24 511.956 653.326 514.74 666.38 513.634C678.527 512.605 685.101 506.872 696.153 509.46C692.505 509.528 689.675 509.182 686.528 510.87L686.071 512.245C689.156 514.152 691.946 513.56 696.028 513.684C691.005 514.18 684.746 514.394 680.217 516.231L680.007 517.363C681.245 518.995 681.107 518.965 682.938 519.841C682.457 517.379 682.067 517.543 682.819 515.208C686.988 515.076 697.695 514.259 700.894 516.537C700.196 518.558 700.795 517.711 699.061 519.052C702.245 521.459 715.329 517.252 719.992 516.179C721.082 512.899 721.883 477.623 721.863 472.252C724.024 471.734 723.673 471.814 725.863 471.706C725.856 468.948 725.581 467.94 726.397 465.37C726.497 466.774 727.005 469.812 727.031 470.946C727.365 485.74 728.333 500.261 730.186 514.978C730.77 519.618 730.269 524.435 730.856 528.97C732.773 519.704 732.408 506.634 733.247 496.832C744.082 370.297 770.604 224.95 839.518 116.082L840.548 114.983L841.058 114.316C863.618 84.1314 893.478 32.1334 938.548 39.4754C1023.19 53.2624 1081.25 133.17 1125.64 199.843C1136.3 215.831 1143.5 234.732 1155.87 247.894C1174.25 246.139 1191.09 243.888 1209.1 239.968C1219.47 237.711 1234.92 241.05 1243.14 234.431C1247.15 231.742 1249.17 229.037 1252.35 225.434C1272.98 202.37 1308.51 166.655 1331.02 146.215L1336.24 141.317Z" fill="#FCFCFA"/>
<path d="M590.128 514.24C599.24 511.956 653.326 514.74 666.38 513.634C678.527 512.605 685.101 506.872 696.153 509.46C692.505 509.528 689.675 509.182 686.528 510.87L686.071 512.245C689.156 514.152 691.946 513.56 696.028 513.684C691.005 514.18 684.746 514.394 680.217 516.231L680.007 517.363C681.245 518.995 681.107 518.965 682.938 519.841C682.457 517.379 682.067 517.543 682.819 515.208C686.988 515.076 697.695 514.259 700.894 516.537C700.196 518.558 700.795 517.711 699.061 519.052C702.245 521.459 715.329 517.252 719.992 516.179C721.082 512.899 721.883 477.623 721.863 472.252C724.024 471.734 723.673 471.814 725.863 471.706C725.856 468.948 725.581 467.94 726.397 465.37C726.497 466.774 727.005 469.812 727.031 470.946C727.365 485.74 728.333 500.261 730.186 514.978C730.77 519.618 730.269 524.435 730.856 528.97C730.828 532.866 730.254 534.157 727.854 536.658C721.787 537.661 696.026 526.879 688.167 525.036C657.244 517.786 621.775 514.269 590.128 514.24Z" fill="#111112"/>
<path d="M1533.6 1140.25C1537.32 1148.08 1549.11 1142.24 1556.66 1145.64L1557.2 1147.02C1556.31 1147.72 1535.33 1150.28 1531.17 1151.09C1529.63 1149.89 1528.38 1148.85 1526.9 1147.57L1526.37 1147.56L1526.16 1151.39C1522.77 1153.96 1521.62 1152.4 1518.24 1150.18C1505.21 1150.8 1495.11 1153.25 1482.48 1150.15C1480.89 1147.22 1479.87 1144.86 1477.52 1142.48C1500.53 1145.11 1511.14 1143.13 1533.6 1140.25Z" fill="#111112"/>
<path d="M1659.8 1090.36C1661.93 1095.97 1661.98 1095.21 1668.52 1095.23L1669.93 1096.79C1668.54 1099.33 1669.52 1098.2 1666.28 1099.64L1668.21 1100.4L1668.1 1101.99C1660.97 1106.36 1660.97 1097.88 1653.07 1106.47C1649.38 1107.27 1650.8 1107.22 1646.84 1105.58C1646.04 1103.59 1646.2 1104.31 1646.16 1102.03C1642.98 1101.34 1642.02 1101.52 1638.86 1101.68C1644.09 1098.33 1653.17 1094.34 1659.8 1090.36Z" fill="#111112"/>
<path d="M982.768 1294.74C980.088 1294.47 977.158 1293.82 974.488 1293.32C969.698 1295.11 975.198 1294.16 971.388 1298.43L969.718 1297.24C968.588 1289.54 971.838 1291.36 972.098 1285.6C972.378 1279.16 969.228 1258.61 972.698 1254.06C973.858 1271.4 975.348 1279.18 982.768 1294.74Z" fill="#191B19"/>
<path d="M108.925 891.482C109.733 885.162 110.17 883.882 109.176 877.522L110.359 876.422C116.947 878.202 118.419 878.502 125.287 878.282L126.876 878.222L108.925 891.482Z" fill="#191B19"/>
<path d="M47.5208 953.052C47.3268 947.292 47.8588 945.112 47.0598 938.762C45.5468 936.762 45.4148 936.872 44.8908 934.472L46.5608 933.172L48.8338 933.492L49.9748 937.622C52.9568 940.212 52.7868 939.272 58.0898 939.222C54.6418 943.892 51.1188 948.502 47.5208 953.052Z" fill="#191B19"/>
<path d="M1558.01 31.6004C1572.84 29.9374 1596.45 27.9804 1610.97 31.6454C1627.01 35.6934 1637.43 54.7804 1638.63 71.0284C1638.75 72.5324 1638.83 74.0384 1638.89 75.5464C1643.48 106.671 1638.38 184.636 1627.74 213.991C1626.15 221.361 1624.78 228.774 1623.61 236.221C1615.39 258.714 1610.84 284.889 1602.84 308.119C1587.46 352.099 1569.05 394.958 1547.73 436.387C1540.16 451.094 1531.16 464.897 1524.46 480.104C1522.61 484.303 1517.1 495.139 1512.71 496.668C1506.16 493.221 1497.7 484.772 1491.63 479.932C1477.31 468.511 1456.46 462.384 1438.7 467.643C1417.11 474.038 1394.91 505.416 1385.55 524.71C1377.35 541.617 1365.87 570.283 1362.46 588.526C1360.07 601.381 1359.21 614.326 1356.25 628.237C1363.52 642.673 1370.52 648.049 1381.62 659.011C1435.44 712.136 1494.86 656.826 1515.56 602.236C1518.89 593.461 1515.47 585.718 1523.85 579.407L1525.77 579.066C1530.55 582.845 1536.4 630.014 1537.96 638.605C1544.32 673.525 1515.88 682.142 1494.47 699.85C1480.12 711.727 1463.26 725.951 1449.72 738.874C1430.6 757.08 1412.65 776.482 1395.97 796.952C1387.08 807.982 1385.64 814.662 1374.96 825.402C1366.04 834.362 1344 841.002 1340.68 847.012C1337.76 852.322 1336.77 882.282 1334.96 890.782C1328.44 921.522 1316.39 947.892 1317.91 980.252C1318.31 988.762 1324.24 1011.75 1321.97 1016.86C1313.91 1022.53 1300.46 1015.77 1289.13 1024.12C1282.53 1027.25 1275.4 1033.05 1268.67 1036.97C1258.09 1043.11 1248.85 1050.54 1239.01 1056C1238 1058.18 1237.56 1058.89 1236.24 1060.9C1231.83 1063.21 1226.26 1062.36 1221.11 1062.19C1207.92 1055.07 1217.65 1056.07 1214.12 1047.33C1207.94 1049.02 1206.15 1049.54 1199.64 1048.97C1197.51 1049.72 1194.48 1050.65 1192.34 1049.82C1164.41 1039.05 1142.72 1021.52 1112.84 1014.95C1109.19 1015.17 1105.12 1015.48 1101.44 1015.21C1098.93 1015.03 1085.63 1008.99 1084.33 1009.41C1087.79 1011.46 1094.93 1014.92 1096.42 1018.13L1096.32 1024.87C1110.64 1033.95 1133.44 1042.35 1150.04 1051.13C1155.59 1053.08 1159.68 1056.67 1163.41 1057.62C1175.02 1064.6 1199.63 1078.33 1207.24 1088.51C1226.74 1106.76 1246.06 1135.42 1241.97 1163.94C1241.35 1168.27 1242.14 1171.37 1240.02 1175.28L1238.65 1175.98C1232.56 1171.03 1230 1158.09 1222.81 1155.77L1220.95 1156.13C1220.08 1173.32 1237.56 1190.66 1220.97 1205.61C1216.16 1209.94 1206.35 1215.44 1199.82 1215.91C1192.31 1213.09 1194.98 1204.98 1191.8 1197.45C1188.71 1193.12 1187.53 1189.87 1185.48 1185.03C1182.93 1183.14 1180.57 1180.86 1177.52 1180.63L1176.37 1181.94C1177.07 1187.43 1179.42 1191.5 1180.48 1196.74C1188.65 1236.96 1148.36 1219.89 1128.94 1212.93C1121.1 1210.29 1108.82 1203.32 1102.64 1197.57C1066.06 1170.64 1039.93 1169.1 997.738 1158.09C962.778 1148.96 922.818 1133.51 895.368 1109.09C892.288 1106.35 877.318 1087.55 873.838 1083.29C854.118 1082.94 867.068 1094.08 860.718 1100.88C857.038 1101.68 853.328 1102.38 849.618 1102.98C838.528 1104.75 826.908 1105.3 816.458 1106.34C793.411 1108.64 793.031 1104.65 789.083 1084.18C786.275 1069.62 771.468 1053.26 759.352 1044.81C742.923 1030.06 728.105 1025.08 706.449 1020.07C697.412 1017.98 681.688 1018.65 675.353 1013.74C675.62 1009.73 678.56 1003.97 680.284 1000.15C682.418 982.432 693.034 965.212 689.552 945.332C688.137 937.252 677.47 899.382 667.984 900.272C665.802 903.822 666.58 904.932 666.62 909.592C668.259 927.182 668.592 941.442 665.402 959.212C664.281 965.452 660.829 976.082 660.093 981.302C659.123 989.482 643.174 1018.37 636.923 1025.83C630.687 1033.28 617.515 1046.93 610.882 1055.49C611.055 1056.33 611.227 1057.16 611.4 1058C614.402 1059.75 615.354 1059.38 619.327 1058.81L620.132 1058C623.672 1055.34 650.687 1041.84 654.834 1037.97C659.781 1033.36 704.295 1043.54 712.141 1046.1C716.856 1047.64 732.302 1054.47 738.899 1056.96C742.163 1057.29 750.931 1062.58 753.092 1064.87C769.586 1081.05 786.899 1108.06 770.708 1132.29C769.512 1134.08 767.323 1134.46 765.316 1134.82C758.273 1132.96 759.789 1127.06 756.561 1127.89C753.699 1133.89 744.395 1153.21 736.327 1146.78C732.116 1138.05 734.141 1125.22 731.626 1121.27C725.591 1135.48 736.431 1144.78 723.761 1154L724.773 1155.27C718.579 1158.57 609.791 1158.26 595.793 1156.73C589.338 1151.4 595.745 1132.1 583.13 1122.31C578.17 1123.26 581.197 1126.45 576.844 1126.62C569.029 1117 580.216 1110.6 576.382 1104.61C565.295 1087.26 542.617 1077.94 523.99 1071.13C515.796 1068.56 488.078 1068.35 478.557 1067.91C472.328 1067.62 461.613 1075.18 457.405 1075.6C449.503 1076.4 438.409 1076.03 430.362 1076.17C411.969 1076.49 384.622 1079.29 367.336 1071.56C363.761 1070.21 341.62 1069.66 335.544 1068.75L328.462 1068.51C323.39 1068.29 314.118 1067.8 309.384 1066.87C295.024 1064.03 258.502 1051.81 247.59 1043.42C242.198 1038.71 239.75 1036.44 235.102 1031.05C231.974 1027.29 229.512 1023.03 227.822 1018.44C224.679 1009.78 222.79 990.402 215.118 989.142C203.829 996.562 203.24 1031.11 212.268 1042.58C254.025 1095.62 344.861 1098.48 406.173 1095.98C451.474 1094.13 509.556 1074.54 548.93 1107.13C564.459 1120.28 578.334 1143.31 573.189 1164.4C570.246 1182.08 557.305 1200.26 542.335 1210.78C517.426 1228.29 476.059 1235.13 445.858 1239.07C418.58 1242.63 387.265 1239.29 359.689 1240.25C344.201 1239.92 316.892 1240.63 302.668 1237.84C285.078 1234.4 266.435 1230.96 248.823 1227.29C240.689 1225.59 236.14 1226.14 227.537 1223.29C195.767 1212.78 150.231 1197.65 122.835 1179.33C118.802 1175.36 110.118 1169.96 105.132 1166.12C92.0568 1156.05 80.7068 1146.47 70.2628 1133.65C69.5918 1132.93 69.2678 1132.63 68.4438 1131.53C29.9638 1080.49 31.2148 1025.55 65.7648 973.152C95.0868 928.672 126.813 912.562 167.509 882.062L168.506 881.842C181.117 873.802 199.786 867.312 210.616 857.552C215.385 853.262 241.514 783.002 247.081 770.372C250.193 766.692 250.825 762.812 253.226 758.712C274.681 722.114 300.87 678.855 333.659 651.199C337.753 647.78 343.529 641.602 347.451 637.637C352.169 633.144 361.48 624.697 366.658 621.088C384.409 606.237 401.421 595.893 421.66 584.625C509.104 535.941 602.682 530.32 698.446 553.929C711.745 557.208 734.322 569.308 748.512 567.031C758.005 563.742 757.908 532.187 757.98 524.363C758.275 492.174 761.432 464.271 766.018 432.782C772.173 390.525 778.125 351.362 789.329 310.047C801.346 265.734 813.678 220.785 834.128 179.434C838.858 169.998 845.628 154.361 851.858 146.413C856.848 134.132 868.968 115.866 877.158 105.71C888.668 94.1754 898.248 75.3554 915.778 67.8374C928.348 62.4474 948.348 65.5414 960.528 70.3604C969.428 73.2434 985.288 81.5694 992.538 87.1924C1006.99 96.4634 1035.09 120.183 1044.3 134.129C1047.7 137.853 1052.98 143.334 1055.95 147.181C1066.6 161.926 1093.16 193.83 1100.36 208.938C1102.69 212.566 1108.99 221.332 1110.48 224.29C1112.85 229.385 1138.3 270.706 1142.1 273.336C1148.39 277.707 1180.62 269.188 1190.1 268.263C1209.42 266.374 1234.78 267.431 1253.26 260.81C1262.03 250.041 1280.39 232.957 1290.89 222.271C1348.11 164.056 1406.31 108.182 1477.49 67.1974C1485.27 62.7234 1495.92 55.7734 1504.2 52.4924C1505.53 51.9664 1509.63 50.8204 1511.77 50.0084C1517.87 45.1984 1550.31 32.7814 1558.01 31.6004Z" fill="#42029D"/>
<path d="M738.899 1056.96C742.163 1057.29 750.931 1062.58 753.092 1064.87C769.586 1081.05 786.899 1108.06 770.708 1132.29C769.512 1134.08 767.323 1134.46 765.316 1134.82C758.273 1132.96 759.789 1127.06 756.561 1127.89C753.699 1133.89 744.395 1153.21 736.327 1146.78C732.116 1138.05 734.141 1125.22 731.626 1121.27C725.591 1135.48 736.431 1144.78 723.761 1154L724.773 1155.27C718.579 1158.57 609.791 1158.26 595.793 1156.73C589.338 1151.4 595.745 1132.1 583.13 1122.31C578.17 1123.26 581.197 1126.45 576.844 1126.62C569.029 1117 580.216 1110.6 576.382 1104.61C565.295 1087.26 542.617 1077.94 523.99 1071.13C515.796 1068.56 488.078 1068.35 478.557 1067.91C472.328 1067.62 461.613 1075.18 457.405 1075.6C449.503 1076.4 438.409 1076.03 430.362 1076.17C411.969 1076.49 384.622 1079.29 367.336 1071.56C379.362 1068.84 409.331 1069.52 423.553 1068.43C454.388 1066.06 483.135 1062.25 513.861 1067.03C521.732 1067.99 529.221 1068.65 536.639 1071.64C551.887 1079.49 563.789 1082.89 575.039 1097.29C577.027 1099.83 583.379 1108.24 585.116 1110.01C589.788 1119.79 598.744 1134.42 597.147 1145.42C598.043 1147.48 600.177 1151.54 602.459 1151.71C632.916 1153.92 666.714 1152.78 697.149 1150.22C704.767 1149.58 716.827 1147.11 721.962 1144.91C720.431 1133.55 721.521 1114.83 721.337 1102.91C721.257 1097.71 724.855 1097.67 724.311 1093.8L719.984 1092.27C722.046 1092.49 721.901 1092.46 723.834 1091.67C723.18 1090.54 722.972 1089.9 722.48 1088.69L723.519 1087.12C727.188 1085.67 727.403 1086.58 731.219 1088.28C735.855 1085.12 737.677 1081.66 743.644 1078.12C747.098 1078.2 747.523 1078.25 750.824 1077.43L750.993 1075.3C748.747 1071.03 747.248 1068.82 746.984 1063.84C743.947 1062.06 740.415 1060.07 738.899 1056.96Z" fill="#F5F4F6"/>
<path d="M746.984 1063.84C757.772 1072.95 775.682 1099.19 769.206 1115C768.278 1117.26 767.573 1117.53 765.466 1118.19C758.154 1112.47 759.521 1084.44 746.808 1084.38C742.148 1092.2 759.951 1130.27 744.098 1139.73C740.8 1139.71 742.277 1140.22 739.62 1137.91C735.388 1128.25 739.431 1109.82 728.722 1103.19C725.732 1103.7 726.855 1102.99 725.057 1105.05C723.196 1116.85 727.544 1134.13 721.962 1144.91C720.431 1133.55 721.521 1114.83 721.337 1102.91C721.257 1097.71 724.855 1097.67 724.311 1093.8L719.984 1092.27C722.046 1092.49 721.901 1092.46 723.834 1091.67C723.18 1090.54 722.972 1089.9 722.48 1088.69L723.519 1087.12C727.188 1085.67 727.403 1086.58 731.219 1088.28C735.855 1085.12 737.677 1081.66 743.644 1078.12C747.098 1078.2 747.523 1078.25 750.824 1077.43L750.993 1075.3C748.747 1071.03 747.248 1068.82 746.984 1063.84Z" fill="#4A08A3"/>
<path d="M1096.32 1024.87C1087.77 1018.55 1077.57 1014.49 1069.29 1007.16C1058.22 997.712 1050.73 984.112 1046.37 970.352C1044.63 964.852 1038.19 949.662 1042.16 945.212C1047.34 946.632 1055.45 964.702 1058.67 970.142C1077.04 1001.2 1086.85 999.572 1112.84 1014.95C1109.19 1015.17 1105.12 1015.48 1101.44 1015.21C1098.93 1015.03 1085.63 1008.99 1084.33 1009.41C1087.79 1011.46 1094.93 1014.92 1096.42 1018.13L1096.32 1024.87Z" fill="#F5F4F6"/>
<path d="M860.718 1100.88C860.788 1088.03 825.988 1042.79 837.088 1034.92C846.808 1039.02 845.858 1051.26 854.508 1056.89C856.038 1063.17 868.968 1078.44 873.838 1083.29C854.118 1082.94 867.068 1094.08 860.718 1100.88Z" fill="#F5F4F6"/>
<path d="M1199.64 1048.97C1212.45 1041.62 1224.15 1035.19 1234.91 1025.07C1236.31 1023.75 1240.45 1022.58 1242.5 1022.65C1244.23 1030.2 1224.52 1044.66 1223.26 1054.96C1226.08 1060.39 1234.4 1057.72 1239.01 1056C1238 1058.18 1237.56 1058.89 1236.24 1060.9C1231.83 1063.21 1226.26 1062.36 1221.11 1062.19C1207.92 1055.07 1217.65 1056.07 1214.12 1047.33C1207.94 1049.02 1206.15 1049.54 1199.64 1048.97Z" fill="#F5F4F6"/>
<path d="M988.748 572.141C1016.48 533.332 1046.35 520.745 1092.38 511.558C1164.06 497.255 1231.13 570.713 1248.15 635.028C1233.96 675.863 1195.32 710.335 1156.71 729.288C1126.24 744.252 1076.26 745.2 1043.87 735.01C1013.71 725.523 977.988 691.303 962.868 663.404C957.648 653.484 959.058 645.069 960.978 634.786C964.698 621.627 970.138 606.111 976.058 593.904C979.628 586.53 985.308 579.789 988.748 572.141Z" fill="#FCFCFA"/>
<path d="M988.748 572.141C1016.48 533.332 1046.35 520.745 1092.38 511.558C1164.06 497.255 1231.13 570.713 1248.15 635.028C1233.96 675.863 1195.32 710.335 1156.71 729.288C1126.24 744.252 1076.26 745.2 1043.87 735.01C1013.71 725.523 977.988 691.303 962.868 663.404C957.648 653.484 959.058 645.069 960.978 634.786C961.868 642.64 960.048 652.147 962.568 659.22C966.358 660.421 967.418 660.907 971.318 661.129L972.798 657.742C975.278 660.223 971.168 663.706 973.798 668.797C977.948 671.665 975.458 666.943 981.008 668.381C980.758 669.996 979.508 679.91 980.098 680.937C985.528 690.35 1002.82 705.053 1011.95 710.177C1013.69 711.154 1022.04 707.942 1026.98 709.836C1027.04 712.426 1024.27 713.457 1022.35 718.012L1022.94 719.439C1037.26 728.573 1043.29 730.52 1060.59 733.937C1071.9 736.171 1125.88 738.339 1133.5 732.89C1132.15 728.432 1123.38 729.625 1118.41 727.106C1097.82 716.661 1089.02 688.096 1085.35 667.001C1084.1 659.8 1085.28 642.146 1085.36 633.845C1085.91 633.128 1086.46 632.412 1087 631.696C1092.96 624.053 1093.07 613.499 1098.25 605.133C1099.85 601.869 1106.51 592.778 1110.19 592.302C1116.23 591.519 1118.61 588.152 1124.37 586.5C1130.42 586.749 1133.97 594.765 1142.32 593.308C1144.69 592.894 1153.66 604.973 1155.2 607.492C1161.66 618.034 1166.29 630.876 1170.5 642.506C1171.71 648.329 1171.36 655.823 1171.5 661.543C1171.89 677.464 1170.1 690.942 1163.88 705.628C1161.96 710.184 1158.61 716.324 1157.64 721.02L1159.42 721.519C1163.01 720.468 1195.89 699.431 1198.65 696.421C1208.32 685.899 1225.2 667.229 1233.8 655.342C1235.03 653.643 1244.74 633.198 1242.2 631.181C1240.9 628.202 1236.89 623.598 1236.54 620.531C1234.91 606.459 1199.46 551.515 1187.4 550.25L1185.43 553.344C1182.8 553.872 1184.04 554.065 1181.63 552.532C1182.3 549.942 1182.32 550.412 1184.12 548.204L1184.68 547.527L1184.46 545.696C1181.11 544.212 1171.82 545.118 1167.47 545.257C1169.15 544.676 1170.81 544.531 1172.58 544.382L1172.55 542.936L1169.79 542.457L1169.67 541.422C1171.71 540.242 1172.63 540.007 1173.84 538.024C1170.1 533.182 1151.49 523.528 1145.25 521.242C1101.66 505.253 1040.86 524.401 1008.33 555.227C1006.27 557.177 1009.2 564.048 1008.01 567.251C1006.56 564.589 1006.05 563.789 1004.26 561.344L1002.29 561.105C995.498 566.532 1004.42 568.677 1002.91 577.681C1000.52 580.086 1001.78 579.77 999.268 579.839C998.098 577.72 998.568 575.006 997.918 572.323L988.748 572.141Z" fill="#F5F4F6"/>
<path d="M1123.61 595.054C1124.03 594.952 1124.46 594.851 1124.89 594.749C1152.23 595.086 1162.27 631.305 1164.27 652.232C1165.78 667.98 1165.07 676.027 1162.73 689.096C1159.62 706.413 1153.42 723.905 1134.17 725.317C1124.84 725.385 1120.12 722.858 1112.8 716.684C1098.81 704.875 1092.37 674.219 1091.36 657.174C1090.51 642.757 1097.4 611.765 1108.4 601.332C1114.24 595.804 1115.84 595.263 1123.61 595.054Z" fill="#42029D"/>
<path d="M1126.4 708.136C1133.1 708.205 1139.63 705.926 1142.59 712.462C1137.2 713.642 1128.81 716.287 1125.68 710.694L1126.4 708.136Z" fill="#4A08A3"/>
<path d="M1107.67 673.74C1110.74 674.897 1109.5 673.986 1111.53 676.601C1112.18 680.008 1111.96 679.972 1110.77 683.097C1108.61 682.499 1108.65 682.223 1107 680.63C1106.86 677.818 1107.2 676.461 1107.67 673.74Z" fill="#4A08A3"/>
<path d="M1343.4 630.251C1340.86 632.951 1340.84 633.148 1337.25 633.759C1333.36 629.521 1336.84 616.569 1340.54 612.842L1341.83 613.296C1342.74 616.524 1343.41 618.124 1342.92 621.445C1343.16 624.5 1343.32 627.187 1343.4 630.251Z" fill="#4A08A3"/>
<path d="M1162.97 1184.29L1165.33 1184.79C1167.57 1188.95 1166.66 1196.94 1164.3 1201L1160.92 1200.81C1157.35 1198.34 1160.68 1187.53 1162.97 1184.29Z" fill="#4A08A3"/>
<path d="M1310.79 921.013C1313.75 922.813 1313.61 923.102 1315.11 926.142C1315.56 930.172 1314.72 930.922 1312.68 934.712L1312.27 934.472L1310.88 935.263L1310.51 938.302L1310.7 939.102L1310.12 939.982C1308.85 933.912 1306.73 926.063 1310.79 921.013Z" fill="#4A08A3"/>
<path d="M1154.27 498.978C1156.3 499.955 1156.77 500.731 1158.32 502.375L1158.26 504.376C1155.07 506.868 1150.25 506.836 1146.1 507.269C1144.13 504.775 1144.67 506.129 1144.2 503.154C1146.09 500.92 1149.55 501.144 1153.57 499.304L1154.27 498.978Z" fill="#4A08A3"/>
<path d="M1644.6 641.93C1649.93 639.398 1659.21 636.919 1665.19 634.964C1704.04 622.246 1751.35 616.164 1789.15 635.987L1790.12 636.29C1803.69 642.965 1847.79 690.325 1857 703.722C1861.61 710.442 1865.25 717.777 1867.82 725.512C1881.67 766.222 1870.85 821.062 1850.12 857.822C1846.17 864.842 1830.03 897.612 1826.17 901.372C1820.75 908.432 1816.72 915.402 1810.91 922.162C1802.42 933.402 1792.1 946.652 1782.3 956.852C1764.33 975.822 1747.35 992.842 1727.29 1009.87C1719.38 1016.58 1707.94 1027.28 1699.25 1032.71L1696.87 1034.17C1691.1 1038.76 1670.76 1053.56 1663.69 1056.28C1658.75 1060.54 1648.12 1067.28 1642.12 1069.63C1639.4 1071.25 1636.65 1072.96 1633.85 1074.43C1630.66 1076.43 1629.69 1076.92 1626.2 1078.37C1596.9 1095.15 1540.23 1116.18 1506.16 1115.45C1488.57 1116.51 1477.02 1115.51 1459.94 1112.55C1431.67 1105.95 1425.56 1098.49 1404.29 1083.32C1402.24 1073.09 1408.2 1058.48 1404.76 1049.72C1399.36 1037.65 1393.21 1026.02 1380.99 1019.82C1368.53 1013.5 1366.25 1018.32 1356.83 1018.89C1340.29 1013.6 1345.16 962.262 1347.07 948.452C1351.83 922.652 1371.21 879.253 1385.1 856.633C1387.82 853.493 1398.9 836.532 1401.77 832.292C1408.89 821.852 1420.85 806.992 1429.28 797.592C1431.89 792.262 1458.83 764.452 1464.62 760.316C1468.87 756.044 1473.94 751.481 1478.37 747.306C1484.02 741.847 1492.37 735.343 1498.57 730.229C1504.37 724.729 1524.76 708.953 1531.49 704.699C1534.27 702.392 1536.61 700.916 1539.64 698.933C1566.87 680.495 1604.45 656.925 1635.03 645.79L1644.6 641.93Z" fill="#171817"/>
<path d="M1459.94 1112.55C1458.01 1106.94 1456.44 1106.98 1450.99 1104.76L1449.77 1104.27L1449.44 1102.81C1452.12 1101.65 1518.72 1107.64 1527.16 1103.32C1526.67 1103.57 1544.99 1100.68 1544.75 1100.68L1545.59 1101.72C1537.28 1111.98 1513.29 1107.96 1506.16 1115.45C1488.57 1116.51 1477.02 1115.51 1459.94 1112.55Z" fill="#111112"/>
<path d="M1464.62 760.316C1468.35 760.073 1475.02 759.044 1477.92 760.77C1476.52 764.482 1467.62 765.362 1466.05 772.822C1464.88 778.422 1458.48 778.212 1454 780.162C1454.57 781.882 1455.05 783.572 1455.39 785.352C1452.78 788.762 1445.97 789.072 1443.28 791.692C1438.65 796.192 1438.75 807.352 1431.61 808.412C1428.49 805.382 1429.14 801.752 1429.28 797.592C1431.89 792.262 1458.83 764.452 1464.62 760.316Z" fill="#111112"/>
<path d="M1401.77 832.292C1406.64 832.162 1407.12 832.962 1410.64 830.452C1411.7 832.212 1413 834.082 1412.04 836.342C1407.47 847.042 1396.05 859.583 1388.24 868.253C1388.17 868.333 1388.81 871.132 1388.89 871.472L1388.14 872.142C1384.67 867.022 1385.25 862.863 1385.1 856.633C1387.82 853.493 1398.9 836.532 1401.77 832.292Z" fill="#111112"/>
<path d="M1644.6 641.93C1653.37 642.22 1660.97 643.108 1669.31 640.123L1670.92 641.135L1671.04 643.046C1668.12 645.143 1665.48 645.048 1661.79 645.497C1661 647.809 1661.18 646.891 1661.41 649.421C1659.52 652.103 1657.03 652.319 1653.75 653.289L1649.26 651.791C1647.74 653.915 1648.23 653.023 1647.72 655.765C1644.73 657.488 1634.69 657.105 1630.21 657.489C1631.21 656.384 1630.56 656.882 1632.35 656.242C1632.73 651.882 1633.47 649.9 1635.03 645.79L1644.6 641.93Z" fill="#111112"/>
<path d="M1498.57 730.229C1503.5 729.96 1507.23 728.958 1511.04 731.208L1511.51 733.387C1505.6 734.134 1491.13 746.056 1491.64 753.077C1485.31 751.896 1485.41 752.995 1481.07 758.162L1479.26 758.033C1477.62 754.814 1478.23 751.024 1478.37 747.306C1484.02 741.847 1492.37 735.343 1498.57 730.229Z" fill="#111112"/>
<path d="M1782.3 956.852C1782.64 951.312 1781.43 939.182 1782.73 936.282C1787.12 934.472 1792.24 931.933 1796.97 932.133L1798.71 930.003C1797.88 928.283 1797.27 926.892 1796.55 925.122C1797.93 925.012 1798.57 924.832 1799.92 924.542L1800.29 923.133L1798.37 921.072C1797.94 918.662 1797.8 919.552 1798.46 917.352C1805.49 922.602 1803.21 922.332 1810.91 922.162C1802.42 933.402 1792.1 946.652 1782.3 956.852Z" fill="#191B19"/>
<path d="M1626.2 1078.37C1619.84 1077.95 1606.46 1081.28 1603.27 1076.52C1607.16 1071.85 1612.81 1075.71 1618.03 1072.15C1618.04 1070 1617.97 1069.86 1618.52 1067.8C1623.15 1066.52 1630.16 1065.7 1634.96 1066.21C1634.74 1069.18 1634.34 1071.49 1633.85 1074.43C1630.66 1076.43 1629.69 1076.92 1626.2 1078.37Z" fill="#111112"/>
<path d="M1531.49 704.699C1534.27 702.392 1536.61 700.916 1539.64 698.933C1544.41 698.902 1549.22 698.152 1552.74 700.93C1551.25 706.593 1538.04 710.351 1532.83 716.397L1530.79 716.504C1530.02 714.374 1531.52 708.433 1531.49 704.699Z" fill="#111112"/>
<path d="M1789.15 635.987L1790.12 636.29C1790.2 641.124 1789.9 642.238 1793.3 645.741L1792.94 646.699C1788.8 647.857 1785.07 647.211 1781.82 644.147C1776.59 639.224 1773.74 640.248 1767.32 639.491L1766.37 639.369L1765.01 639.215L1766.32 637.847C1773.81 635.584 1781.33 636.009 1789.15 635.987Z" fill="#111112"/>
<path d="M1696.87 1034.17C1690.56 1033.76 1684.56 1037.97 1681.94 1033.6C1683.52 1028.69 1681.08 1028.17 1683.45 1025.46C1687.62 1026.38 1689.09 1026.8 1693.29 1026.88C1694.84 1024.84 1695.03 1024.27 1697.25 1022.96L1699.52 1024.3L1699.25 1032.71L1696.87 1034.17Z" fill="#111112"/>
<path d="M1644.76 1059.41C1642.15 1057.53 1640.81 1056.62 1640.12 1053.97C1646.86 1052.45 1646.06 1057.29 1650.51 1057.03C1655.36 1056.74 1658.14 1056.18 1663.69 1056.28C1658.75 1060.54 1648.12 1067.28 1642.12 1069.63L1642.48 1064.7C1644.41 1063.22 1645.58 1062.66 1646.43 1060.38L1644.76 1059.41Z" fill="#191B19"/>
<path d="M1816.99 889.162C1820 887.402 1819.9 887.512 1823.38 886.932L1825.27 888.133C1826.31 894.443 1824.67 895.622 1826.17 901.372C1822.41 901.362 1819.85 902.112 1817.6 900.112C1817.83 895.172 1818.46 894.052 1816.99 889.162Z" fill="#111112"/>
<path d="M1642.48 1064.7C1637.98 1061.6 1636.13 1065.01 1631.55 1062.12L1633.27 1059.44C1636.33 1058.28 1641.29 1059.12 1644.76 1059.41L1646.43 1060.38C1645.58 1062.66 1644.41 1063.22 1642.48 1064.7Z" fill="#111112"/>
<path d="M1708.72 709.219C1713.24 709.543 1725.39 704.784 1730.28 702.702C1743.81 696.936 1773.05 691.42 1787.26 695.435C1793.83 694.954 1800.68 699.521 1804.21 698.706C1854.12 715.223 1844.54 767.742 1830.53 806.782C1813.53 854.162 1780.81 895.412 1749.69 934.292C1748.09 936.292 1749.42 935.012 1747.48 936.662C1753.19 936.912 1751.83 935.992 1755.35 939.042C1757.04 947.662 1744.47 950.652 1738.07 951.982C1736.19 950.662 1736.64 951.193 1735.53 949.383C1734.78 950.102 1732.99 951.702 1732.46 952.442C1730.15 954.192 1727.88 955.992 1725.65 957.842C1705.14 979.662 1640.05 1029.98 1612.03 1039.88C1606.01 1043.89 1543.69 1072.91 1536.59 1074.01C1529.62 1075.12 1514.94 1083.09 1508.41 1083.61C1489.39 1085.12 1466.7 1087.53 1448.94 1079.16C1424.79 1066.31 1415.68 1048.04 1420.01 1021.27C1423.65 998.792 1421.51 991.732 1432.28 969.682C1432.42 968.042 1434.12 964.723 1434.88 963.013L1434.85 960.702C1438.71 958.432 1442.04 941.912 1446.71 934.372C1462.92 908.152 1481.18 884.452 1500.47 860.532C1504.34 855.732 1517.81 843.552 1522.75 838.592C1552.27 809.032 1583.3 782.312 1617.94 758.887C1632.29 749.616 1646.69 740.423 1661.26 731.514C1667.71 727.572 1674.76 724.792 1681.05 720.603C1676.09 719.944 1672.37 721.405 1669.78 719.59C1669.82 716.981 1669.87 717.13 1670.89 714.701L1672.69 714.069C1676.59 715.464 1676.71 715.464 1680.74 714.843C1685.28 710.163 1679.66 713.667 1682.85 708.435C1688.39 707.216 1694.9 706.013 1700.23 704.361C1706.27 702.491 1706.37 700.251 1713.26 700.415L1715.79 700.351L1716.51 701.909C1714.19 706.148 1711.53 703.993 1708.72 709.219Z" fill="#B6B6B5"/>
<path d="M1700.28 922.642L1701.49 922.482C1705.62 921.932 1706.25 922.002 1709.86 920.222L1711.14 921.282C1711.72 928.052 1708.03 929.162 1703.58 933.892L1701.21 932.112C1698.91 934.412 1696.82 939.822 1696.58 943.172C1698.23 947.312 1699.28 946.613 1703.71 946.753C1705.36 950.523 1705.38 950.662 1705.38 954.732C1704.21 957.622 1673.98 984.542 1669.4 988.412C1668.87 986.122 1668.83 985.572 1668.7 983.212C1665.01 979.612 1659.8 978.652 1655.46 981.862L1655.13 983.432C1654.71 985.252 1654.68 985.462 1653.48 986.962L1649.51 987.902L1649.29 988.772C1651.25 989.552 1652.49 989.742 1653.6 991.642C1651.88 993.372 1650.02 993.702 1647.67 994.482L1646.64 996.722C1649.6 1000.55 1649.5 999.412 1654.57 999.832L1654.25 1001.39C1641.6 1007.82 1627.04 1022.13 1613.52 1028.48C1612.28 1029.06 1600.21 1028.12 1598.35 1027.98C1599.18 1030.5 1599.56 1030.47 1601.37 1032.57C1600.49 1035.62 1597.81 1037.61 1595.44 1039.87C1598.09 1042.55 1607.3 1039.98 1612.03 1039.88C1606.01 1043.89 1543.69 1072.91 1536.59 1074.01C1529.62 1075.12 1514.94 1083.09 1508.41 1083.61C1489.39 1085.12 1466.7 1087.53 1448.94 1079.16C1424.79 1066.31 1415.68 1048.04 1420.01 1021.27C1423.65 998.792 1421.51 991.732 1432.28 969.682C1432.42 968.042 1434.12 964.723 1434.88 963.013C1438.51 959.763 1439.24 959.542 1439.99 955.492C1440.75 953.262 1440.9 953.273 1442.36 951.383C1443.03 948.253 1443.32 947.672 1444.49 944.802L1445.69 945.542C1444.94 955.002 1449.92 955.082 1458.05 958.112L1460.83 958.712L1462.11 958.982C1468.15 960.282 1470.38 961.532 1475.41 965.122C1504.4 976.972 1520.74 984.853 1552.43 984.263C1558.19 984.153 1585.82 994.132 1589.34 998.532C1590.32 1000.15 1590.57 1000.59 1592.22 1001.53L1591.28 1005.1C1602.66 1002.1 1614.75 989.922 1624.66 982.892C1640.11 971.952 1656.12 961.272 1670.9 949.482C1680.69 941.672 1689.56 931.992 1699.01 923.742L1700.28 922.642Z" fill="#727370"/>
<path d="M1442.36 951.383C1443.03 948.253 1443.32 947.672 1444.49 944.802L1445.69 945.542C1444.94 955.002 1449.92 955.082 1458.05 958.112L1460.83 958.712L1462.11 958.982C1468.15 960.282 1470.38 961.532 1475.41 965.122C1504.4 976.972 1520.74 984.853 1552.43 984.263C1558.19 984.153 1585.82 994.132 1589.34 998.532C1590.32 1000.15 1590.57 1000.59 1592.22 1001.53L1591.28 1005.1C1549.56 1024.04 1514.72 1050 1463.99 1050.74L1453.8 1049.78C1448.85 1050 1440.2 1048.11 1435.16 1047.16C1430.52 1044.7 1429.72 1041.8 1427.61 1037.17C1426.82 1036.7 1423.72 1034.87 1423.46 1034.17C1419.11 1020.9 1422.44 1004.31 1425.89 991.162C1427.83 983.742 1431.96 977.332 1432.28 969.682C1432.42 968.042 1434.12 964.723 1434.88 963.013C1438.51 959.763 1439.24 959.542 1439.99 955.492C1440.75 953.262 1440.9 953.273 1442.36 951.383Z" fill="#8255B4"/>
<path d="M1442.36 951.383C1443.03 948.253 1443.32 947.672 1444.49 944.802L1445.69 945.542C1444.94 955.002 1449.92 955.082 1458.05 958.112L1460.83 958.712L1462.11 958.982C1468.15 960.282 1470.38 961.532 1475.41 965.122C1504.4 976.972 1520.74 984.853 1552.43 984.263C1558.19 984.153 1585.82 994.132 1589.34 998.532C1590.32 1000.15 1590.57 1000.59 1592.22 1001.53L1591.28 1005.1C1549.56 1024.04 1514.72 1050 1463.99 1050.74C1455.4 1044.03 1472.24 1034.4 1477.54 1032.27C1486.79 1026.11 1519.19 1011.07 1530.65 1005.23C1536.79 1001.96 1549.15 997.862 1551.39 991.232C1546.23 986.552 1529.18 990.572 1519.09 985.852C1513.39 983.602 1507.3 982.963 1500.1 980.003C1497.11 978.653 1477.72 970.632 1475.84 970.352C1473.13 969.192 1468.43 966.382 1465.68 964.852C1457.84 963.872 1446.15 958.623 1442.36 951.383Z" fill="#B6A2D3"/>
<path d="M1553.78 997.962C1557.39 998.082 1557.86 998.102 1559.64 1000.92L1558.51 1002.36L1556.03 1002.09C1553.15 1003.13 1552.86 1003.52 1549.81 1003.01C1550.3 1000.17 1551.04 1000.42 1553.78 997.962Z" fill="#BAA8D5"/>
<path d="M1490.01 1038.32C1491 1037.75 1491.6 1037.76 1492.78 1037.5L1494.24 1038.7L1493.5 1040.52L1488.09 1042.22C1485.38 1042.29 1485.48 1042.46 1483.22 1041.04C1485.35 1038.8 1486.37 1039.22 1490.01 1038.32Z" fill="#BAA8D5"/>
<path d="M1519.09 985.852C1529.18 990.572 1546.23 986.552 1551.39 991.232C1549.15 997.862 1536.79 1001.96 1530.65 1005.23C1525.73 1005.34 1520.99 1005.48 1516.05 1005.31C1516.89 1004.55 1517.81 1004.22 1518.85 1003.77L1515.75 1003.45C1517.51 999.742 1518.27 1003.81 1522.81 999.732L1522.57 997.902C1513.04 986.122 1509.56 995.302 1501.37 990.482L1501.15 988.552L1502.42 987.112C1508.76 986.352 1512.72 985.922 1519.09 985.852Z" fill="#7D4BAF"/>
<path d="M1497.34 1011.5C1497.53 1012.71 1497.32 1013.74 1497.2 1015.02C1492.79 1020.72 1483.44 1023.93 1477.35 1019.59C1485.97 1011.86 1488.07 1017.74 1494.35 1015.39C1495.26 1014.01 1496.25 1012.74 1497.34 1011.5Z" fill="#7D4BAF"/>
<path d="M1432.28 969.682C1431.96 977.332 1427.83 983.742 1425.89 991.162C1422.44 1004.31 1419.11 1020.9 1423.46 1034.17C1423.72 1034.87 1426.82 1036.7 1427.61 1037.17C1429.72 1041.8 1430.52 1044.7 1435.16 1047.16C1444.13 1076.19 1466.55 1056.6 1477.12 1063.1C1474.7 1066.35 1470.13 1064.25 1465.69 1067.84C1469.88 1081.94 1525 1067.45 1535.29 1063.86C1539.62 1062.35 1543.66 1059.46 1548.32 1059.24L1550.2 1061.67C1548.02 1065.98 1540.28 1069.79 1536.59 1074.01C1529.62 1075.12 1514.94 1083.09 1508.41 1083.61C1489.39 1085.12 1466.7 1087.53 1448.94 1079.16C1424.79 1066.31 1415.68 1048.04 1420.01 1021.27C1423.65 998.792 1421.51 991.732 1432.28 969.682Z" fill="#B6B6B5"/>
<path d="M1499.62 1066.34C1502.53 1066.88 1502.9 1067.06 1505.54 1068.09L1505.52 1069.52C1499.51 1072.23 1486.25 1070.38 1478.54 1070.57C1474.91 1070.45 1474.55 1070.58 1471.34 1069.08C1473.5 1067.35 1494.14 1067.01 1499.62 1066.34Z" fill="#4E4E4C"/>
<path d="M1642.45 998.112L1644.76 998.542L1645.44 1000.39C1643.52 1005.39 1642.63 1006.15 1637.65 1007.27C1635.33 1006.2 1635.51 1006.25 1634.07 1004.1C1636.15 1000.49 1638.95 1001.37 1642.45 998.112Z" fill="#4E4E4C"/>
<path d="M1627.64 985.503C1628.07 986.393 1632.17 989.902 1633.19 990.842L1632.23 992.592C1630.18 992.952 1631.23 992.842 1629.08 992.912C1626.21 993.432 1624.88 992.982 1622.29 991.782L1621.81 990.263C1623.58 986.943 1623.7 987.703 1627.64 985.503Z" fill="#4E4E4C"/>
<path d="M1445.69 945.542C1449.47 940.952 1459.89 918.042 1467.94 919.932C1468.64 922.532 1468.73 924.172 1470.78 925.852L1474.59 924.452C1473.5 921.062 1471.16 913.862 1472.52 910.552C1474.77 910.442 1476.77 910.272 1479.01 910.062C1479.46 907.552 1476.75 900.942 1477.23 900.272C1531.57 823.652 1617.31 753.851 1704.15 717.205C1708.27 715.466 1725.64 721.071 1731.13 721.111C1728.48 720.693 1726.99 720.721 1724.83 719.115L1725.36 717.83C1727.64 718.135 1729.93 718.397 1732.22 718.614C1729.9 718.286 1724.95 717.054 1723.86 714.889C1728.06 713.366 1734.91 712.521 1736.86 711.084C1737.57 708.873 1738.37 705.689 1740.57 704.919C1758.44 698.666 1780.97 697.359 1799.13 703.135C1804.46 704.828 1809.58 706.083 1812.16 710.657C1809.87 717.72 1811.89 716.34 1812.26 722.339C1812.71 729.572 1811.65 743.292 1809.35 750.628C1802.4 772.872 1792.46 798.622 1779.52 818.232C1778.31 820.052 1774.6 819.932 1772.41 819.962L1770.63 819.982C1770.14 821.942 1769.69 823.922 1769.26 825.902L1767.46 826.972L1758.06 823.232C1756.02 827.112 1759.96 824.132 1760.1 828.792C1760.35 837.342 1756.37 836.402 1764.49 840.402L1755.31 853.412C1754.95 850.862 1754.69 849.732 1754.07 847.312L1752.6 846.872C1750.24 848.952 1749.11 849.862 1746.54 851.672L1744.86 851.472L1747.2 852.702C1747.89 857.232 1748.7 859.302 1744.96 862.322C1740.3 861.362 1734.2 862.842 1734.02 868.312C1737.76 872.612 1737.93 868.862 1740.94 871.502C1737.71 875.052 1732.09 879.262 1727.23 876.062C1727.1 873.842 1727.21 872.372 1726.21 870.372L1722.61 870.472C1720.08 869.092 1720.74 870.092 1719.93 867.882L1721.99 867.132C1722.14 864.522 1722.34 861.922 1722.59 859.322L1724.07 858.152C1726.19 859.682 1726.47 859.802 1728.86 860.892L1731.53 859.602L1731.33 858.332C1729.64 856.742 1730.09 857.452 1729.28 855.242C1731.3 849.522 1734.66 842.272 1742.08 843.312L1743.29 846.142L1744.3 845.662C1745.35 841.712 1748.84 835.702 1748.91 832.952L1744.42 832.572C1745.31 828.112 1752.94 819.622 1755.83 813.462C1768.01 787.522 1795.12 753.295 1788.58 723.605C1784.58 718.211 1746.59 724.509 1742.45 725.817C1726.16 730.964 1712.89 737.64 1696.77 742.557C1687.56 745.368 1670.63 761.194 1662.58 755.393L1660.24 750.432L1658.84 750.688C1657.48 752.927 1658.02 754.75 1658.26 757.436C1656.74 760.46 1657.81 759.289 1654.94 761.082C1651.47 759.069 1649.3 757.314 1645.34 757.158L1643.31 758.326L1644.37 758.886C1647.68 760.668 1648.58 760.841 1650.6 763.782C1650.76 765.572 1651.19 767.182 1649.37 768.602C1643.12 773.492 1635.23 778.462 1628.75 782.942C1618.14 790.392 1607.68 798.072 1597.38 805.962C1561.54 833.982 1522.3 874.052 1495.38 910.722C1490.67 917.142 1479.28 928.552 1476.93 936.852C1477.07 953.132 1479.56 958.972 1458.05 958.112C1449.92 955.082 1444.94 955.002 1445.69 945.542Z" fill="#FCFCFA"/>
<path d="M1808.85 764.212C1808.97 768.382 1807.19 785.442 1807.47 786.792C1808.5 784.282 1808.49 784.302 1810.15 782.162L1811.94 782.522C1812.4 779.872 1812.52 778.522 1813.62 776.012L1814.73 777.712C1817.32 777.042 1817.38 776.522 1819.56 774.672H1821.75C1824.44 778.052 1824.4 779.742 1823.32 783.782L1822.08 784.302L1819.78 782.922C1817.72 786.032 1816.9 794.912 1820.34 797.462C1824.31 793.822 1819.19 794.422 1823.13 792.702C1829.28 798.192 1821.24 807.842 1818.51 813.212C1810.04 829.842 1788.14 882.842 1767.06 882.932C1766.1 882.932 1765.14 882.912 1764.17 882.892L1763.3 884.552L1766.43 885.442L1767.22 887.753L1766.52 888.432C1764.73 887.972 1764.55 887.552 1763.38 888.042C1762.5 890.702 1763.27 892.092 1764.1 894.812C1761.57 903.272 1722.29 938.902 1714.28 948.922C1712.99 950.492 1713.41 950.002 1711.59 951.102C1709.84 946.042 1711.03 947.452 1707.3 944.122L1703.71 946.753C1699.28 946.613 1698.23 947.312 1696.58 943.172C1696.82 939.822 1698.91 934.412 1701.21 932.112L1703.58 933.892C1708.03 929.162 1711.72 928.052 1711.14 921.282L1709.86 920.222C1706.25 922.002 1705.62 921.932 1701.49 922.482L1700.28 922.642C1706.51 916.862 1716.36 905.463 1722.09 901.263C1723.3 905.093 1721.6 905.502 1724.36 908.602C1728.78 908.542 1737.25 903.702 1737.55 899.602C1735.79 898.102 1735.27 897.492 1733.75 895.732L1734.62 894.582C1738.93 894.022 1738.37 893.362 1741.29 895.112L1740.27 897.032V897.022L1741.74 896.172L1740.06 895.712L1739.93 896.592C1741.1 893.692 1742.15 893.362 1743.45 890.732L1741.27 889.542L1745.27 888.263C1746.25 885.593 1745.59 885.892 1743.99 882.322L1746.58 879.972C1741.58 880.082 1740.62 886.712 1735.13 885.282C1751.2 866.332 1763.69 849.862 1777.76 829.242C1781.61 823.602 1787.86 811.542 1790.56 808.272L1792.28 808.162C1793.93 810.552 1794.53 811.452 1796.53 813.652L1798.25 813.082C1802.28 808.802 1799.2 791.842 1800.77 787.422C1803.68 779.252 1806.3 772.752 1808.85 764.212Z" fill="#828282"/>
<path d="M1811.94 782.522C1812.4 779.872 1812.52 778.522 1813.62 776.012L1814.73 777.712C1817.32 777.042 1817.38 776.522 1819.56 774.672H1821.75C1824.44 778.052 1824.4 779.742 1823.32 783.782L1822.08 784.302L1819.78 782.922C1817.72 786.032 1816.9 794.912 1820.34 797.462C1824.31 793.822 1819.19 794.422 1823.13 792.702C1822.65 800.542 1819.78 799.882 1816.1 806.232C1814.54 808.912 1814.79 813.012 1812.11 815.142C1809.28 809.912 1811.81 798.052 1808.12 793.312L1805.64 794.302L1804.72 793.672C1806.46 791.192 1806.31 791.342 1808.93 789.812L1810.13 792.092L1811.51 792.152C1811.28 788.102 1811.44 786.572 1811.94 782.522Z" fill="#727370"/>
<path d="M1707.3 944.122L1704.59 941.342C1707.74 939.362 1712.38 939.702 1715.23 942.182C1714.75 944.542 1714.2 946.522 1714.28 948.922C1712.99 950.492 1713.41 950.002 1711.59 951.102C1709.84 946.042 1711.03 947.452 1707.3 944.122Z" fill="#727370"/>
<path d="M1775.07 840.412C1777.61 844.192 1777.32 849.782 1773.32 852.562L1770.47 851.792C1768.7 851.082 1769.32 851.402 1767.87 850.062C1768.96 846.112 1772.13 843.502 1775.07 840.412Z" fill="#727370"/>
<path d="M1721.76 930.022L1723.17 932.792C1723.26 936.292 1721.64 938.122 1719.8 941.182C1716.71 936.942 1717.63 932.892 1721.76 930.022Z" fill="#727370"/>
<path d="M1657.04 925.532C1660.77 924.522 1665.18 922.813 1668.72 923.763L1670.29 926.332C1667.92 931.152 1666 928.192 1662.83 932.322C1665.32 936.442 1667.81 935.013 1669.93 940.133L1669.15 945.763C1663.16 951.403 1628.18 977.392 1619.43 978.142C1616.36 978.412 1607.49 975.452 1603.38 977.432C1604.96 980.292 1613.45 979.763 1610.78 985.763C1607.27 993.643 1597.3 999.602 1589.34 998.532C1585.82 994.132 1558.19 984.153 1552.43 984.263C1520.74 984.853 1504.4 976.972 1475.41 965.122C1478.08 956.882 1479.95 962.612 1485.93 958.102L1486.03 956.072L1482.34 952.822L1482.56 951.622C1487.77 951.432 1487.99 954.102 1489.28 954.032C1494.27 953.762 1497.93 952.912 1503.27 953.572C1509.7 954.362 1521.98 961.822 1526.85 962.462C1531.54 963.082 1543.05 962.033 1548.73 962.263C1559.38 963.003 1572.18 964.863 1582.38 968.513C1594.42 972.833 1593.69 969.712 1605.22 968.422C1606.21 968.312 1613.39 974.472 1617.08 974.162L1618.59 972.222C1616.74 969.132 1614.78 970.382 1610.88 966.572C1614.59 957.472 1647.65 932.532 1657.04 925.532Z" fill="#FCFCFA"/>
<path d="M1554.09 971.082C1555.04 970.922 1555.53 971.132 1556.56 971.312L1556.46 973.252C1551.89 976.122 1550.41 975.942 1545.08 975.402L1542.39 974.242L1541.92 972.762C1544.48 971.352 1550.85 971.302 1554.09 971.082Z" fill="#F5F4F6"/>
<path d="M1657.04 925.532C1660.4 921.962 1675.5 907.192 1680.05 906.282C1686.48 905.002 1684.72 911.083 1688.61 913.763L1690.32 913.332C1692.09 908.352 1684.6 891.462 1694.95 889.092C1696.05 891.162 1697.2 893.192 1698.41 895.192L1700.31 895.452C1702.27 894.322 1708.39 883.773 1708.44 882.513L1702.88 882.612L1702.53 881.172C1704.38 878.002 1711.95 869.562 1714.96 867.952C1715.35 872.032 1714.61 872.233 1716.84 874.253L1720.78 873.052C1723.63 875.652 1727.11 879.112 1727.3 883.122C1724.68 885.872 1724.03 884.582 1718.92 885.622C1717.18 888.892 1718.38 892.382 1718.61 896.992C1717.01 900.512 1716.75 900.643 1713.9 903.383C1706.82 902.613 1706.1 905.912 1700.99 903.942L1700.96 905.753L1699.01 906.702L1701.1 908.372C1700.92 910.772 1700.96 910.712 1700.09 912.932C1700.61 913.892 1701.13 914.842 1701.65 915.802C1690.8 925.632 1679.98 936.153 1669.15 945.763L1669.93 940.133C1667.81 935.013 1665.32 936.442 1662.83 932.322C1666 928.192 1667.92 931.152 1670.29 926.332L1668.72 923.763C1665.18 922.813 1660.77 924.522 1657.04 925.532Z" fill="#F5F4F6"/>
<path d="M1700.99 903.942C1700.48 899.542 1700.02 900.762 1701.61 897.152C1707.82 893.292 1711.88 897.403 1713.9 903.383C1706.82 902.613 1706.1 905.912 1700.99 903.942Z" fill="#FCFCFA"/>
<path d="M1700.09 912.932C1697.92 913.302 1698.06 913.242 1695.97 912.472L1695.21 910.753C1696.58 907.413 1695.52 908.852 1699.01 906.702L1701.1 908.372C1700.92 910.772 1700.96 910.712 1700.09 912.932Z" fill="#FCFCFA"/>
<path d="M1681.05 720.603C1676.09 719.944 1672.37 721.405 1669.78 719.59C1669.82 716.981 1669.87 717.13 1670.89 714.701L1672.69 714.069C1676.59 715.464 1676.71 715.464 1680.74 714.843C1685.28 710.163 1679.66 713.667 1682.85 708.435C1688.39 707.216 1694.9 706.013 1700.23 704.361C1706.27 702.491 1706.37 700.251 1713.26 700.415L1715.79 700.351L1716.51 701.909C1714.19 706.148 1711.53 703.993 1708.72 709.219C1706.55 710.617 1683.22 720.448 1681.05 720.603Z" fill="#111112"/>
<path d="M1735.53 949.383C1738.5 945.933 1744.01 939.002 1747.48 936.662C1753.19 936.912 1751.83 935.992 1755.35 939.042C1757.04 947.662 1744.47 950.652 1738.07 951.982C1736.19 950.662 1736.64 951.193 1735.53 949.383Z" fill="#111112"/>
<path d="M1720.58 740.889C1722.71 741.259 1721.72 740.825 1723.51 742.306C1721.82 745.524 1712.87 750.163 1708.28 756.379C1701.12 766.062 1697.65 775.912 1699.05 788.142C1700.38 799.792 1707.19 802.262 1714.76 808.122C1717.63 816.062 1705.45 822.272 1701.75 832.662C1698.51 841.772 1699.86 845.042 1697.11 853.072C1694.55 860.512 1688.6 870.643 1685.63 877.622C1674.84 904.663 1660.69 918.532 1637.19 935.542C1627.18 942.792 1605.68 958.712 1595.23 965.942C1592.51 967.822 1574.46 960.943 1568.58 959.753C1551.47 956.292 1535.28 961.882 1519.16 954.582C1512.58 949.812 1488.92 947.442 1483.85 938.942C1483.65 931.202 1491.85 922.882 1496.35 916.852C1521.91 882.522 1556.56 845.682 1589.52 818.822C1619.34 794.522 1683.53 746.419 1720.58 740.889Z" fill="#4E4E4C"/>
<path d="M1689.1 847.652C1690.9 848.012 1690.08 847.812 1691.73 849.672C1692.37 854.672 1692.7 856.743 1689.98 861.263L1685.37 862.022C1683.36 860.092 1683.7 860.152 1682.34 857.572C1682.96 854.472 1686.99 851.492 1689.1 847.652Z" fill="#4B4A4C"/>
<path d="M1638.07 918.162C1642.61 917.482 1643.75 916.482 1646.97 918.282L1647.55 921.782C1644.26 921.912 1642.05 922.342 1639.08 920.982L1638.07 918.162Z" fill="#4B4A4C"/>
<path d="M1658.54 774.752C1661.02 776.812 1660.22 775.582 1661.3 778.352C1658.58 780.222 1659.52 779.652 1655.54 779.552L1654.93 780.112L1653.7 779.552C1655.32 776.262 1655.1 777.132 1658.54 774.752Z" fill="#4B4A4C"/>
<path d="M1631.79 923.322L1634.68 925.003L1635.05 927.042L1632.43 930.642L1628.9 928.412C1628.83 925.502 1629.06 926.272 1631.79 923.322Z" fill="#4B4A4C"/>
<path d="M1687.18 765.082C1687.74 764.232 1688.73 763.772 1689.75 763.872C1690.76 763.982 1691.63 764.632 1692.01 765.582C1692.39 766.532 1692.21 767.612 1691.55 768.382C1690.61 769.492 1688.97 769.672 1687.81 768.792C1686.65 767.922 1686.38 766.292 1687.18 765.082Z" fill="#4B4A4C"/>
<path d="M1735.6 746.198C1763.55 744.341 1751.59 801.542 1719.54 802.572C1712.93 799.172 1703.56 799.342 1702.35 787.122C1700.43 767.562 1716 748.359 1735.6 746.198Z" fill="#F5F4F6"/>
<path d="M1718.2 819.862C1733.51 816.052 1731.01 841.082 1711.08 848.642L1708.75 849.612C1705.64 849.272 1706.93 849.902 1704.76 847.682C1701.9 838.202 1709.75 824.462 1718.2 819.862Z" fill="#FCFCFA"/>
<path d="M1766.73 736.24L1767.54 736.103C1769.59 737.008 1768.65 736.323 1769.8 739.213C1771.32 739.677 1772.8 739.911 1774.38 740.087L1775.56 743.166C1775 747.399 1771.73 749.506 1769.24 753.267C1768.95 757.204 1768.45 755.535 1770.21 758.574C1772.95 759.622 1776.21 757.89 1779.84 757.272L1779.17 759.883C1776.4 763.132 1775.77 763.282 1771.67 764.612C1769.3 762.567 1768.99 761.392 1767.65 758.598L1767.17 757.59L1765.6 757.133C1763.77 758.867 1762.66 760.252 1760.27 761.037C1758.58 757.023 1762.8 747.26 1763.81 740.899L1763.95 739.945C1765.3 738.675 1765.84 737.868 1766.73 736.24Z" fill="#4E4E4C"/>
<path d="M1765.35 767.452C1768.98 769.262 1772.1 773.372 1771.16 777.512C1768.62 780.072 1767.34 779.942 1763.59 780.692C1761.2 779.622 1762.18 779.852 1759.48 780.042L1757.2 784.312L1757.66 786.692L1756.14 786.732C1752.72 780.232 1757.63 768.182 1765.35 767.452Z" fill="#4E4E4C"/>
<path d="M1787.26 695.435C1779.88 684.407 1759.76 696.638 1751.05 690.118L1750.91 688.372C1759.04 685.765 1787.39 687.825 1797.01 686.606C1800.54 686.158 1816.9 692.31 1818.05 696.257C1814.21 699.423 1809.2 698.226 1804.21 698.706C1800.68 699.521 1793.83 694.954 1787.26 695.435Z" fill="#111112"/>
<path d="M1724.59 628.195C1729.06 628.043 1747.48 628.993 1750.43 631.838C1745.6 633.384 1739.96 633.28 1734.8 633.518C1732.54 634.624 1712.58 634.284 1710.56 631.185C1714.28 628.027 1719.19 628.584 1724.59 628.195Z" fill="#111112"/>
<path d="M1851.13 750.255C1855.59 753.965 1854.58 762.762 1853.43 767.942C1850.7 780.282 1851.97 772.042 1855.01 779.382C1853.58 779.992 1849.71 781.622 1849.01 779.492C1846.54 771.962 1849.61 757.927 1851.13 750.255Z" fill="#181818"/>
<path d="M1423.45 959.202L1424.26 957.753C1426.18 954.263 1426.27 950.042 1431.41 948.802C1435.02 952.182 1434.53 955.512 1434.85 960.702L1431.41 960.412C1428.07 963.522 1427.33 966.432 1424.37 968.402C1424.41 968.022 1424.45 967.643 1424.48 967.263C1425.81 965.633 1423.45 959.192 1423.45 959.202Z" fill="#191B19"/>
<path d="M1352.23 958.412L1353.85 959.802C1355.53 966.162 1354.73 990.792 1353.38 997.782C1349.07 990.422 1350.08 966.592 1352.23 958.412Z" fill="#111112"/>
<path d="M1725.65 957.842C1727.88 955.992 1730.15 954.192 1732.46 952.442C1735.54 954.632 1735.49 954.442 1736.98 957.852C1736.45 964.202 1728.78 966.562 1723.26 968.082C1724.02 966.212 1724.22 965.932 1725.33 964.242L1725.65 957.842Z" fill="#111112"/>
<path d="M1846 725.44L1848.5 727.88C1852.05 740.786 1849.28 741.002 1848.77 754.304L1848.58 754.598L1847.61 754.81L1848.49 753.624L1845.96 752.774C1844.11 749.201 1846.07 730.955 1846 725.44Z" fill="#111112"/>
<path d="M1678.32 1001.22C1680.14 1001.14 1681.63 1001.17 1683.44 1001.22L1684.61 1002.71C1683.54 1006.19 1679.09 1007.29 1675.97 1012.65C1673.36 1013.38 1671.25 1014.36 1668.76 1013.58L1668.38 1012.39C1670.62 1008.01 1674.69 1004.7 1678.32 1001.22Z" fill="#111112"/>
<path d="M1603.4 1051.33L1605.84 1050.84L1606.57 1052.07C1603.81 1058 1601.93 1059.54 1595.64 1058.89C1592.73 1056.73 1593.67 1057.4 1589.46 1057.11C1591.78 1050.37 1596.17 1051.99 1603.4 1051.33Z" fill="#111112"/>
<path d="M1410.83 1011.78L1412.98 1013.88C1414.38 1023.16 1413.54 1027.37 1412.07 1036.4L1410.21 1034.55C1408.86 1028.7 1409.81 1017.78 1410.83 1011.78Z" fill="#191B19"/>
<path d="M1366.26 906.272C1366.74 906.702 1367.99 908.522 1368.42 909.122C1368.98 915.102 1367.55 918.532 1365.19 924.042L1363.18 921.532C1361.97 915.032 1363.69 912.272 1366.26 906.272Z" fill="#111112"/>
<path d="M1509.59 1086.97C1511.63 1087.29 1510.78 1086.82 1512.13 1088.39L1510.7 1090.13C1504.89 1092.03 1504.03 1092.25 1497.8 1092.49C1496.19 1091.08 1496.73 1091.67 1495.74 1089.69C1498.25 1086.94 1505.38 1087.22 1509.59 1086.97Z" fill="#111112"/>
<path d="M1551.08 1095.14C1556.04 1095.01 1561.65 1094.35 1566.18 1095.96L1567.62 1099.2C1562.09 1099.39 1554.31 1100.63 1550.55 1097.21L1551.08 1095.14Z" fill="#111112"/>
<path d="M1525.09 1080.19C1529.49 1080.07 1535.89 1079.17 1538.83 1081.68L1538.28 1083.74C1533.53 1081.89 1530.34 1087.33 1525.52 1083.71L1525.09 1080.19Z" fill="#111112"/>
<path d="M1855.11 820.362C1858.91 824.452 1855.8 832.502 1854 836.782L1853.33 836.003C1852.36 830.193 1852.46 825.662 1855.11 820.362Z" fill="#111112"/>
<path d="M1832.07 814.312L1833.32 815.753C1834.2 820.533 1833.2 825.002 1831.37 829.442C1827.64 824.652 1829.42 819.162 1832.07 814.312Z" fill="#111112"/>
<path d="M1811.35 900.872C1813.9 901.762 1813.87 901.932 1816.02 903.662C1816.17 907.252 1815.71 906.582 1813.12 910.322C1811.74 911.042 1812.56 910.792 1810.57 910.742C1809.41 907.772 1810.66 904.152 1811.35 900.872Z" fill="#111112"/>
<path d="M1745.67 976.832C1747.14 977.202 1748.69 977.722 1750.15 978.172C1751.6 981.252 1750.66 982.262 1750.01 986.422C1745.24 984.522 1744.43 981.762 1745.67 976.832Z" fill="#111112"/>
<path d="M1418.7 1079.08C1421.6 1080.1 1423.16 1080.04 1424.68 1082.06L1421.45 1086.45L1421.69 1088.13L1420.79 1087.92C1418.74 1084 1418.6 1083.5 1418.7 1079.08Z" fill="#111112"/>
<path d="M1837.7 714.452C1838.38 714.895 1839.9 716.297 1840.58 716.883C1841.8 721.032 1841.53 721.526 1840.89 725.951C1836.75 722.864 1836.65 719.076 1837.7 714.452Z" fill="#111112"/>
<path d="M1621.23 657.119C1625.15 657.665 1625.34 656.962 1627.21 659.2L1625.58 661.787C1623.03 662.031 1621.98 662.009 1619.48 661.945L1618.92 660.49L1621.23 657.119Z" fill="#111112"/>
<path d="M1608.3 756.769C1609.1 756.851 1608.59 756.722 1609.63 757.657C1608.85 760.516 1608.73 762.487 1606.44 764.242C1603.46 763.392 1604.62 764.172 1602.67 762.119C1603.92 758.924 1604.84 759.18 1608.3 756.769Z" fill="#111112"/>
<path d="M1859.29 725.67L1861.94 726.963C1863.75 729.916 1863 732.901 1862.69 736.431L1860.29 735.282C1858.7 732.434 1859.2 729.041 1859.29 725.67Z" fill="#111112"/>
<path d="M1443.94 1093.82C1446.38 1093.97 1448.81 1094.19 1451.24 1094.47C1450.35 1096.4 1450.62 1095.37 1450.93 1097.68C1449.93 1098 1448.94 1098.39 1447.86 1098.31C1445.24 1098.11 1442.78 1096.97 1440.94 1095.09L1443.94 1093.82Z" fill="#111112"/>
<path d="M1474.52 876.032C1475.59 876.092 1477.13 876.412 1478.23 876.602C1479.94 879.762 1479.15 880.022 1478.72 884.412L1475.84 883.383C1473.81 880.203 1474.53 880.532 1474.52 876.032Z" fill="#111112"/>
<path d="M1616.77 750.008C1619.03 750.526 1618.35 750.143 1619.95 751.718C1619.68 754.907 1620.11 753.308 1617.44 756.351C1615.28 755.824 1615.87 755.997 1613.9 754.928C1614.02 751.968 1614.09 752.833 1616.77 750.008Z" fill="#111112"/>
<path d="M1805.9 913.232C1808.33 913.382 1807.84 913.252 1810.18 913.902L1806.89 919.102L1804.96 919.342L1803.77 917.782C1804.23 914.012 1803.37 915.382 1805.9 913.232Z" fill="#111112"/>
<path d="M1754.52 968.942C1757.1 970.842 1757.13 973.632 1758.08 977.182C1754.64 977.752 1756.05 978.162 1753.56 976.662C1752.75 973.872 1753.72 971.812 1754.52 968.942Z" fill="#111112"/>
<path d="M1626.44 743.748C1627.48 743.926 1628.34 744.656 1628.69 745.652C1629.03 746.648 1628.81 747.753 1628.1 748.538C1627.4 749.322 1626.32 749.662 1625.3 749.424C1623.77 749.07 1622.8 747.566 1623.11 746.03C1623.42 744.493 1624.9 743.482 1626.44 743.748Z" fill="#111112"/>
<path d="M1692.99 992.282C1693.73 992.952 1694.78 994.133 1695.5 994.883L1695.02 996.532L1690.81 998.792L1688.59 996.672C1689.15 994.012 1689.89 994.372 1692.99 992.282Z" fill="#111112"/>
<path d="M1548.69 1074.78C1551.65 1074.93 1553.87 1074.76 1556.5 1076.05L1554.66 1076.29C1551.78 1077.26 1550.69 1078.2 1548.23 1077.61L1548.69 1074.78Z" fill="#111112"/>
<path d="M1822.25 699.323C1824.05 700.415 1823.96 700.302 1825.15 702.027L1823.92 703.28L1823.24 703.697L1822.15 703.41L1822.25 699.323Z" fill="#111112"/>
<path d="M1344.41 1018.1C1343.77 1016.21 1343.23 1014.29 1342.77 1012.34C1340.19 1001.77 1340.56 970.492 1342.44 958.672C1342.91 955.782 1345.44 951.062 1347.07 948.452C1345.16 962.262 1340.29 1013.6 1356.83 1018.89C1366.25 1018.32 1368.53 1013.5 1380.99 1019.82C1393.21 1026.02 1399.36 1037.65 1404.76 1049.72C1408.2 1058.48 1402.24 1073.09 1404.29 1083.32C1397.42 1077.41 1404.67 1058.55 1399.14 1051.12C1394.75 1056.4 1401.16 1066.29 1392.22 1072.75C1385.59 1080.26 1373.71 1090.2 1364.77 1094.61C1364.11 1097.74 1362.16 1111.04 1361.32 1112.27C1348.27 1131.55 1313.11 1154.44 1295 1168.31C1289.67 1172.51 1264.83 1192.53 1259.65 1189.57C1259.65 1184.25 1263.19 1176.93 1264.15 1169.05L1264.31 1167.66C1266.21 1131.09 1254.07 1116.6 1235.94 1088.42C1246.87 1079.54 1262.12 1070.44 1273.87 1062.48C1275.19 1047.22 1277.08 1055.18 1279.33 1047.38C1276.5 1047.04 1277.35 1047.68 1275.65 1046.21L1276.09 1044.72C1278.53 1043.53 1278.9 1043.04 1281.58 1043.32L1278.89 1045.49C1281.28 1045.35 1281.53 1045.01 1283.75 1043.98L1283.94 1042.56C1285.53 1041.21 1285.59 1041.06 1286.83 1039.36L1285.42 1037.98C1279.16 1036.34 1275.02 1037.07 1268.67 1036.97C1275.4 1033.05 1282.53 1027.25 1289.13 1024.12C1289.18 1027.56 1288.85 1031 1290.44 1033.95C1293.58 1035.67 1299.88 1035.06 1303.78 1035.01L1302.99 1036.04C1302.68 1038.96 1303.09 1040.94 1303.48 1043.83C1314.16 1043.33 1322.57 1043.5 1333.22 1043.83C1335.21 1040.96 1334.34 1038.45 1334.19 1034.3C1338.87 1030.35 1342.05 1032.58 1347.46 1028.32C1349.27 1024.86 1349.98 1024.95 1349.63 1021.78L1344.41 1018.1Z" fill="#171817"/>
<path d="M1344.41 1018.1C1343.77 1016.21 1343.23 1014.29 1342.77 1012.34C1340.19 1001.77 1340.56 970.492 1342.44 958.672C1342.91 955.782 1345.44 951.062 1347.07 948.452C1345.16 962.262 1340.29 1013.6 1356.83 1018.89C1366.25 1018.32 1368.53 1013.5 1380.99 1019.82C1393.21 1026.02 1399.36 1037.65 1404.76 1049.72C1408.2 1058.48 1402.24 1073.09 1404.29 1083.32C1397.42 1077.41 1404.67 1058.55 1399.14 1051.12C1394.75 1056.4 1401.16 1066.29 1392.22 1072.75C1396.29 1048.96 1389.91 1041.84 1373.37 1026.83C1368.86 1025.87 1365.28 1025.48 1360.73 1024.95C1355.15 1030.29 1342.12 1037.59 1340.86 1041.14C1342.5 1049.23 1354.11 1054.68 1352.51 1062.83C1349.18 1064.38 1338.72 1053.53 1334.55 1051.41C1317.24 1042.6 1309.41 1043.34 1292.55 1052.16L1289.01 1054.29C1284.83 1056.49 1277.57 1060.04 1273.87 1062.48C1275.19 1047.22 1277.08 1055.18 1279.33 1047.38C1276.5 1047.04 1277.35 1047.68 1275.65 1046.21L1276.09 1044.72C1278.53 1043.53 1278.9 1043.04 1281.58 1043.32L1278.89 1045.49C1281.28 1045.35 1281.53 1045.01 1283.75 1043.98L1283.94 1042.56C1285.53 1041.21 1285.59 1041.06 1286.83 1039.36L1285.42 1037.98C1279.16 1036.34 1275.02 1037.07 1268.67 1036.97C1275.4 1033.05 1282.53 1027.25 1289.13 1024.12C1289.18 1027.56 1288.85 1031 1290.44 1033.95C1293.58 1035.67 1299.88 1035.06 1303.78 1035.01L1302.99 1036.04C1302.68 1038.96 1303.09 1040.94 1303.48 1043.83C1314.16 1043.33 1322.57 1043.5 1333.22 1043.83C1335.21 1040.96 1334.34 1038.45 1334.19 1034.3C1338.87 1030.35 1342.05 1032.58 1347.46 1028.32C1349.27 1024.86 1349.98 1024.95 1349.63 1021.78L1344.41 1018.1Z" fill="#F5F4F6"/>
<path d="M1264.31 1167.66C1278.16 1161.93 1262.3 1131.01 1268.3 1125.75C1273.78 1132.18 1273.86 1147.84 1275.63 1155.83C1277.17 1162.83 1273.53 1165.22 1274.47 1167.31C1277.98 1168.32 1276.43 1168.48 1279.39 1167.71C1280.18 1165.21 1279.84 1163.87 1279.58 1161.28C1282.16 1159.73 1286.84 1161.61 1289.11 1163.46L1289.85 1167.37C1291.57 1167.7 1293.28 1168.01 1295 1168.31C1289.67 1172.51 1264.83 1192.53 1259.65 1189.57C1259.65 1184.25 1263.19 1176.93 1264.15 1169.05L1264.31 1167.66Z" fill="#111112"/>
<path d="M1292.55 1052.16C1296.36 1052.07 1306.82 1051.27 1309.29 1053.36C1307.68 1054.75 1301.24 1058.73 1301.29 1058.22C1300.87 1062.58 1298.28 1064.04 1292.61 1064.85C1288.38 1063.48 1289.86 1064.74 1287.66 1061.36C1288.02 1058.63 1288.37 1056.97 1289.01 1054.29L1292.55 1052.16Z" fill="#111112"/>
<path d="M1354.47 1088.38C1357.65 1091.39 1357.91 1099.2 1357.72 1103.41C1357.39 1110.3 1356.92 1110.79 1352.58 1115.42C1350.12 1109.29 1350.05 1094.07 1354.47 1088.38Z" fill="#111112"/>
<path d="M1247.61 1095.39C1250.58 1095.18 1250.47 1095.09 1253.29 1095.89C1256.02 1099.26 1255.26 1099.36 1256.16 1104.29C1251.87 1103.67 1249.67 1098.84 1247.61 1095.39Z" fill="#111112"/>
<path d="M1269.32 1071.2C1271.36 1073.23 1270.94 1072.03 1271.11 1074.64L1267.82 1077.7L1265.57 1075.97L1265.59 1074.32L1269.32 1071.2Z" fill="#111112"/>
<path d="M1275.19 1064.7C1280.39 1065.34 1279.19 1064.99 1282.43 1068.5C1279.81 1069.07 1279.01 1069.58 1276.59 1068.57L1275.19 1064.7Z" fill="#111112"/>
<path d="M1258.39 1109.17C1261.39 1109.23 1260.11 1108.7 1262.5 1110.16L1263.13 1114.36C1260.24 1114.69 1261.48 1115.08 1259.19 1113.78L1258.39 1109.17Z" fill="#111112"/>
<path d="M1051.33 1203.41C1055.36 1201.09 1057.96 1199.02 1062.6 1200.63C1071.88 1203.85 1092.39 1216.65 1098.96 1222.85C1112.78 1231.93 1117.22 1231.98 1127.59 1238.13C1158.43 1244.52 1155.78 1244.23 1186.06 1241.57C1172.58 1255.63 1162.83 1260.91 1147.25 1272.22C1142.29 1276.76 1134.82 1281.66 1129.16 1285.61L1121.88 1290.28C1113.29 1296.51 1098.74 1306.28 1091.01 1312.46C1087.78 1315.77 1086.71 1316.07 1082.49 1318.26C1064.96 1328.04 1050.17 1325.67 1033.23 1316.26C1028.54 1310.89 1022.87 1306.19 1017.65 1300.31C1010.68 1289.73 1007.09 1286.89 1004.45 1274.39C999.418 1259.2 1000.7 1245.32 1008.54 1231.53C1014.54 1228.73 1027.65 1218.61 1033.73 1214.19C1039.63 1210.65 1045.5 1207.06 1051.33 1203.41Z" fill="#111112"/>
<path d="M1004.45 1274.39C1007.28 1277.38 1009.6 1280.95 1013.83 1280.78C1016.51 1273.72 1009.74 1263.37 1009.45 1256.2C1009.4 1254.99 1013.13 1246.65 1013.84 1245.03L1012.89 1243.05C1010.17 1241.68 1008.68 1242.42 1005.59 1243.08L1004.36 1243.35L1004 1242.29L1005.17 1241C1017.09 1236.95 1012 1249.3 1030.47 1249.87C1026.89 1250.75 1022.7 1251.2 1020.74 1253.67C1024.43 1256.78 1029.23 1254.14 1033.3 1256.71C1037.74 1259.51 1040.95 1269.2 1046.93 1267.5C1049.4 1263.5 1048.53 1264.11 1048.41 1258.48C1060.35 1269.07 1064.66 1291.89 1071.39 1295.04L1074.35 1293.67C1074.21 1298.32 1073.32 1303.87 1075.38 1307.59C1082.1 1309.88 1081.43 1311.37 1082.49 1318.26C1064.96 1328.04 1050.17 1325.67 1033.23 1316.26C1028.54 1310.89 1022.87 1306.19 1017.65 1300.31C1010.68 1289.73 1007.09 1286.89 1004.45 1274.39Z" fill="#181818"/>
<path d="M1017.65 1300.31L1025.35 1300.2C1026.37 1297.73 1027.36 1294.46 1029.22 1292.73L1030.9 1292.36C1033.39 1294.18 1033.21 1294.04 1034.29 1296.95C1027.15 1305.43 1034.17 1305.49 1033.23 1316.26C1028.54 1310.89 1022.87 1306.19 1017.65 1300.31Z" fill="#191B19"/>
<path d="M1058.26 1287.08C1064.3 1289.97 1064.01 1299.89 1062.84 1305.43C1060.23 1304.93 1060.39 1304.74 1058.47 1302.81C1056.7 1298.6 1057.92 1292.15 1058.26 1287.08Z" fill="#111112"/>
<path d="M1015.15 1279.99L1017.76 1281.86C1019.61 1284.96 1018.91 1286.57 1018.4 1290.41C1014.9 1286.27 1014.86 1285.14 1015.15 1279.99Z" fill="#111112"/>
<path d="M1048.41 1258.48L1048.39 1257.93C1047.38 1256.45 1046.61 1255.75 1045.25 1254.57L1044.38 1253.82C1036.83 1247.29 1024.88 1246.18 1022.41 1240.16C1023.2 1237.13 1023.01 1237.25 1025.37 1235.25C1033.03 1235.15 1035.64 1235.97 1043.15 1237.83L1044.22 1237.94C1065.66 1252.27 1075.09 1267.03 1074.35 1293.67L1071.39 1295.04C1064.66 1291.89 1060.35 1269.07 1048.41 1258.48Z" fill="#F5F4F6"/>
<path d="M1091.01 1312.46C1091.52 1306.95 1091.33 1295.46 1092.62 1291.53L1093.78 1291.29L1098.3 1295.09L1098.68 1294.1L1097.27 1291.02L1098.19 1289.35C1104.21 1285.73 1110.33 1290.48 1120.42 1290.31L1121.88 1290.28C1113.29 1296.51 1098.74 1306.28 1091.01 1312.46Z" fill="#191B19"/>
<path d="M1098.96 1222.85C1112.78 1231.93 1117.22 1231.98 1127.59 1238.13C1120 1237.98 1103.06 1245.15 1096.64 1238.52L1097.03 1236.99L1102.34 1235.36L1103.03 1233.79C1100.39 1229.53 1099.03 1227.98 1098.96 1222.85Z" fill="#171817"/>
<path d="M1043.15 1237.83C1040.17 1232.35 1037.06 1229.67 1030.54 1229.87C1040.06 1222.8 1040.73 1223.87 1053.78 1223.6L1055.66 1224.9L1055.63 1227.36C1050.47 1231.2 1046.23 1226.01 1043.3 1233.05L1044.22 1237.94L1043.15 1237.83Z" fill="#191B19"/>
<path d="M1129.16 1285.61C1129.22 1282.76 1130.24 1279.44 1129.71 1276.9C1129.22 1274.5 1129.39 1273.59 1129.58 1271.16C1133.06 1269.75 1135.57 1273 1139.65 1272.63C1142.16 1272.4 1144.72 1272.33 1147.25 1272.22C1142.29 1276.76 1134.82 1281.66 1129.16 1285.61Z" fill="#191B19"/>
<path d="M1033.73 1214.19C1039.63 1210.65 1045.5 1207.06 1051.33 1203.41L1051.34 1209.45C1055.28 1213.17 1051.58 1207.46 1057.48 1213.27L1057.12 1214.87C1050.08 1217.14 1043.05 1213.79 1033.73 1214.19Z" fill="#171817"/>
<path d="M1429.33 545.466C1469.34 549.195 1471.01 628.874 1456.24 654.791C1453.35 659.855 1445.01 668.461 1440.83 673.026C1410.83 671.407 1405.99 619.974 1407.4 597.796C1408.9 574.052 1411.25 561.605 1429.33 545.466Z" fill="#42029D"/>
<path d="M1429.02 644.194C1439.49 643.355 1437.62 650.751 1441.09 656.301C1442.29 655.293 1442.93 654.706 1444.07 653.57L1445.14 652.496L1447.11 652.79L1447.64 654.696C1446.59 656.64 1446.76 656.715 1446.54 658.925L1446.58 660.976C1438.88 665.001 1425.73 652.732 1429.02 644.194Z" fill="#4A08A3"/>
<path d="M355.805 1271.99C389.38 1271.35 427.644 1272.58 460.952 1270.92L462.248 1272.44L461.511 1274.23L460.57 1272.07C457.994 1275.2 457.639 1274.52 457.828 1277.49C446.924 1278.86 429.737 1278.09 418.022 1278.17C392.493 1278.46 366.963 1278.5 341.434 1278.28C337.764 1278.24 310.968 1277.58 309.55 1277.04L309.078 1275.57C314.993 1269.94 342.846 1271.94 352.3 1272.12L355.805 1271.99Z" fill="#111112"/>
<path d="M792.79 1134.12C808.753 1135.78 868.108 1132.59 876.458 1136.89C877.908 1137.63 878.088 1137.51 878.628 1139.06C875.768 1140.38 875.758 1139.81 872.118 1139.52C851.608 1144.6 833.628 1141.44 812.778 1142.62C806.956 1142.95 797.729 1143.85 792.333 1142.73C791.33 1140.41 792.332 1136.82 792.79 1134.12Z" fill="#111112"/>
<path d="M487.367 1259.4C488.87 1259.2 491.928 1258.29 493.528 1257.87C506.411 1258.49 520.7 1254.98 528.381 1263.03L528.224 1264.48C522.979 1267.48 523.276 1264.03 518.416 1266.02C515.821 1264.6 504.005 1264.48 503.312 1265.27C495.672 1274.08 485.029 1271.35 472.893 1271.03L470.852 1269.48L471.183 1268.06C477.635 1266.48 484.964 1266.1 487.367 1259.4Z" fill="#111112"/>
<path d="M15.7768 1027.21L8.6168 1027.06C6.9188 1024.49 5.56879 999.633 8.19179 996.753L10.5848 998.102C13.8448 997.422 12.9298 989.522 16.9528 983.972L18.1448 984.592C20.1638 991.852 19.5368 1001.13 19.4308 1008.78C16.9138 1015.77 16.6638 1019.77 15.7768 1027.21Z" fill="#191B19"/>
<path d="M1243.14 234.431C1233.68 233.892 1202.8 235.442 1196.07 232.989C1203.53 232.909 1223.31 233.085 1229.56 231.872L1229.63 230.946C1221.35 228.572 1201.16 231.742 1196.93 230.089C1201.29 227.057 1221.53 229.488 1230.78 226.43C1240.51 223.217 1246.31 215.146 1251.33 214.256C1253.29 217.271 1252.52 221.635 1252.35 225.434C1249.17 229.037 1247.15 231.742 1243.14 234.431Z" fill="#111112"/>
<path d="M1887.21 838.372C1893.88 836.102 1892.61 831.532 1897.45 830.232C1901.24 834.512 1899.46 852.012 1894.59 855.972C1889.86 859.812 1890.19 867.872 1884.99 870.582C1882.83 865.742 1884.44 852.822 1883.93 845.312C1884.53 843.632 1886.35 840.132 1887.21 838.372Z" fill="#111112"/>
<path d="M240.083 1260.2C251.77 1259.75 268.332 1263.38 280.922 1262.09C283.89 1261.79 294.729 1267.56 295.826 1271.24C293.012 1272.72 291.304 1272.13 288.108 1271.73C287.14 1272.48 286.528 1272.68 285.417 1273.22C276.733 1270.06 266.945 1271.19 257.409 1271.28C257.616 1259.18 248.983 1266.62 245.499 1262.7L250.574 1262.37C247.16 1260.51 244.01 1260.58 240.083 1260.2Z" fill="#111112"/>
<path d="M212.359 1245.85C213.68 1250.28 214.756 1251.36 217.788 1254.82C219.984 1255.44 219.31 1255.11 221.262 1256.33L220.384 1257.2C216.001 1257.25 198.064 1257.22 197.027 1255.41C190.502 1244.01 189.861 1253.67 181.4 1250.77C178.756 1248.06 179.365 1249.62 179.265 1246.04C183.167 1241.91 197.976 1245.56 207.36 1245.06L209.09 1244.96L212.359 1245.85Z" fill="#111112"/>
<path d="M1564.94 647.791C1566.64 632.499 1563.31 605.702 1565.36 593.402L1566.09 593.055L1567.48 599.371L1568.52 599.446C1568.5 596.276 1568.14 594.358 1567.66 591.273L1568.84 590.629C1574.71 597.043 1564.06 626.603 1573.89 636.367L1574.76 637.259C1574.96 637.453 1575.16 637.647 1575.36 637.841V643.691C1572.46 645.462 1568.31 648.824 1564.94 647.791Z" fill="#111112"/>
<path d="M756.982 271.663C759.208 272.333 759.093 272.445 760.852 274.03C762.33 280.05 760.848 306.218 757.41 312.33C755.928 314.965 755.11 316.255 753.469 320.343L752.131 320.463L750.229 318.633C749.263 313.424 749.674 305.216 749.774 299.663C762.303 288.888 753.71 285.276 756.982 271.663Z" fill="#111112"/>
<path d="M1595.24 397.415C1599.1 397.209 1600.52 396.894 1604.14 395.53C1608.26 400.016 1607.08 406.769 1605.11 412.116C1604.45 410.238 1604.89 411.155 1603.75 409.374C1600.7 409.823 1601.86 409.123 1600 411.234C1599.88 415.322 1600.18 418.319 1598.44 421.965L1597.44 422.624C1592.17 419.914 1595.6 405.804 1595.04 398.24L1595.24 397.415Z" fill="#111112"/>
<path d="M421.954 555.311C414.673 554.999 408.078 557.129 401.855 552.95L401.995 551.22C406.168 547.667 423.163 541.732 427.951 544.706C427.497 551.414 426.47 544.105 424.823 553.541L421.954 555.311Z" fill="#111112"/>
<path d="M2.57481 1028.44C7.17681 1032.78 5.4558 1077.08 3.2188 1084.63C-2.9962 1073.37 1.5128 1041.32 2.57481 1028.44Z" fill="#111112"/>
<path d="M919.958 28.2254C931.968 28.9754 937.888 26.7184 952.698 28.8674L952.198 29.8324L954.278 29.2604L954.498 29.5334C953.918 29.4154 953.338 29.2974 952.768 29.1794L952.748 30.0374C947.718 30.4934 915.328 30.4734 914.228 31.3234C918.158 33.2844 920.918 32.7894 925.348 32.7024C930.448 32.7204 936.338 32.3784 941.328 32.6834C946.428 32.9944 948.888 30.7464 952.818 31.9354L953.148 33.3214C947.948 35.4864 916.278 34.7134 908.668 33.0744L907.728 31.4134C911.678 27.9424 915.098 28.0364 919.958 28.2254Z" fill="#111112"/>
<path d="M535.362 1243.91L536.725 1244C543.443 1244.4 547.626 1243.87 554.33 1243.13C556.026 1245.31 555.436 1244.05 555.355 1247.3C552.933 1250.19 552.631 1249.66 549.024 1249.95C541.962 1250.5 538.799 1259.83 531.352 1256.46C530.299 1252.87 534.421 1249.48 535.165 1244.51L535.362 1243.91Z" fill="#111112"/>
<path d="M1331.02 146.215C1327.27 146.302 1323.51 146.264 1319.76 146.102C1320.09 142.311 1330.77 129.12 1336.77 129.111L1337.84 130.554C1336.48 134.897 1336.3 135.704 1336.24 140.275V141.317L1331.02 146.215Z" fill="#111112"/>
<path d="M1669.6 172.666C1671.11 178.182 1672.05 205.196 1668.49 209.306L1665.92 207.479C1663.76 200.819 1664.74 189.157 1665.39 182.138C1665.87 176.902 1665.85 176.789 1669.6 172.666Z" fill="#111112"/>
<path d="M729.779 407.303C737.557 416.587 734.635 433.928 730.915 444.464C730.507 443.557 729.522 441.522 729.385 440.074C728.46 430.254 728.272 420.138 727.673 410.281C728.524 409.078 729.226 408.085 729.779 407.303Z" fill="#111112"/>
<path d="M839.518 116.082C835.588 116.194 833.598 117.28 829.378 116.964C827.148 111.373 833.958 100.45 838.838 98.2614L840.288 99.0704C841.248 102.675 840.388 109.935 840.548 114.983L839.518 116.082Z" fill="#111112"/>
<path d="M1563.59 1134.19C1569.68 1134.16 1582.85 1132.84 1586.51 1136.39L1585.19 1138.22L1580.19 1138.73C1579.54 1138.45 1578.76 1138.43 1578 1138.33L1577.51 1139.94C1574.44 1142.88 1565.15 1144.2 1561.16 1141.34C1560.79 1137.53 1561.24 1138.29 1563.59 1134.19Z" fill="#111112"/>
<path d="M531.798 507.105C534.495 506.825 553.877 508.54 559.111 508.671C554.464 510.373 551.068 511.845 546.092 512.417C532.65 513.164 527.072 513.354 514.024 510.754C518.196 509.231 527.331 507.648 531.798 507.105Z" fill="#111112"/>
<path d="M1151.11 226.977C1153.31 227.262 1153.2 227.15 1154.99 228.418C1155.16 229.952 1155.24 230.962 1155.29 232.529L1155.33 233.928C1160.85 239.112 1174.12 233.28 1178.15 238.101L1177.5 239.813C1170.9 240.328 1165.37 241.463 1158.59 241.869C1155.1 239.477 1151.7 234.799 1149.97 230.849C1149.3 229.337 1150.01 229.089 1151.11 226.977Z" fill="#111112"/>
<path d="M1557.41 549.299L1561.02 549.815C1563.71 553.411 1562.49 575.529 1562.1 581.195L1560.5 581.377C1556.46 577.699 1557.35 555.609 1557.41 549.299Z" fill="#111112"/>
<path d="M1046.55 1358.03C1053.22 1357.99 1059.88 1358.02 1066.54 1358.11C1070.08 1358.18 1073.37 1357.83 1075.68 1360.21L1074.61 1361.77C1069.36 1363.08 1046.06 1364.09 1042.26 1360.07L1046.55 1358.03Z" fill="#111112"/>
<path d="M1673.37 132.41C1674.01 135.52 1673.88 140.75 1673.94 144.115C1675.49 142.492 1675.9 137.096 1676.39 134.341C1677.93 143.096 1675.29 158.317 1677.48 167.933C1676.91 170.027 1677.27 169.773 1675.86 171.528L1676.65 171.247L1676.16 172.102C1675.51 171.043 1675.74 164.138 1675.73 162.311L1672.14 161.829C1672.09 164.142 1672.31 163.364 1671.5 165.467C1669.8 161.836 1672.86 138.083 1673.37 132.41Z" fill="#111112"/>
<path d="M1441.22 1143.05C1447.54 1142.92 1464.03 1143.71 1468.36 1148.61L1464.88 1150.23C1458.14 1149.03 1440.12 1147.93 1436.31 1146.04C1437.45 1143.67 1437.8 1144.27 1441.22 1143.05Z" fill="#111112"/>
<path d="M632.281 508.123C643.562 507.589 653.631 506.027 663.734 511.196C659.351 513.157 641.701 513.585 636.297 512.316C633.261 511.603 633.467 510.6 632.281 508.123Z" fill="#111112"/>
<path d="M103.614 1208.84C100.141 1208.25 95.2758 1207.09 92.8358 1204.37L93.7468 1205.08L93.9948 1203.47C101.013 1202.42 104.585 1204.85 111.335 1203.5C111.522 1208.61 113.039 1209.97 111.401 1213.12C109.189 1213.24 108.606 1213.21 106.554 1213.89L105.164 1214.36L103.315 1213.41L102.83 1211.57L104.508 1209.62L103.614 1208.84Z" fill="#111112"/>
<path d="M737.782 365.49L738.097 367.675C743.123 369.381 738.821 396.723 737.471 401.379C736.007 392.584 735.213 373.785 737.782 365.49Z" fill="#111112"/>
<path d="M498.092 514.349C501.346 514.748 504.448 514.64 506.642 516.865L506.088 518.421C502.05 520.876 500.435 520.452 495.599 520.43C491.783 520.408 489.654 520.87 486.647 518.889L487.154 517.314C490.847 514.267 493.42 514.863 498.092 514.349Z" fill="#111112"/>
<path d="M738.924 1172.23C744.833 1171.84 746 1171.17 750.474 1174.44L750.053 1176.37C748.221 1177.33 747.123 1177.38 745.085 1177.83C741.092 1177.9 734.116 1178.71 732.077 1174.76C734.777 1172.42 734.853 1173.06 738.924 1172.23Z" fill="#111112"/>
<path d="M1655.04 249.39C1658.69 252.732 1656.67 265.184 1653.37 268.557C1648.72 263.396 1649.96 253.947 1655.04 249.39Z" fill="#111112"/>
<path d="M1531.76 0.00241869C1535.28 0.0244187 1540.08 -0.253581 1542.9 1.72442C1542 4.16342 1541.61 3.59642 1538.34 5.10342C1533.93 5.76842 1529.18 7.18842 1525.92 3.48342C1527.86 0.791422 1528.01 1.44042 1531.76 0.00241869Z" fill="#111112"/>
<path d="M1143.79 1309.11C1147.54 1309.12 1154.69 1308.68 1157.74 1310.13L1150.62 1314.08C1147.59 1315.76 1146.86 1316.68 1144.52 1319.29L1143.17 1319.2L1143.18 1309.9L1143.79 1309.11Z" fill="#111112"/>
<path d="M1902.41 803.612C1905.54 807.072 1905.14 821.252 1903.51 825.372L1901.87 826.022C1898.46 821.312 1900 808.702 1902.41 803.612Z" fill="#111112"/>
<path d="M965.468 1250.58L966.178 1251.39C968.498 1259.61 967.558 1263.21 965.818 1271.3C960.268 1267.34 962.248 1255.65 965.468 1250.58Z" fill="#111112"/>
<path d="M365.732 578.5L366.996 578.217C368.08 585.305 361.547 585.288 357.048 585.341C354.53 583.118 355.122 584.429 354.268 581.663L354.998 580.504C358.795 578.556 361.464 578.761 365.732 578.5Z" fill="#111112"/>
<path d="M1632.08 320.383C1634.91 324.236 1635.71 334.048 1632.69 338.265C1630.15 337.468 1631.23 338.136 1629.39 336.103C1628.48 330.05 1629.81 326.054 1632.08 320.383Z" fill="#111112"/>
<path d="M786.967 190.114C793.063 194.712 791.498 199.258 788.642 205.512L786.465 204.571C783.703 199.071 785.206 196.088 786.967 190.114Z" fill="#111112"/>
<path d="M964.828 35.0904C970.038 34.9624 973.898 34.3954 978.118 37.2604L978.578 41.4744C971.108 42.1374 968.808 41.7174 964.828 35.0904Z" fill="#111112"/>
<path d="M1639.04 303.364C1642.86 307.152 1641.16 316.175 1639.34 320.679C1633.97 314.903 1635.07 309.807 1639.04 303.364Z" fill="#111112"/>
<path d="M895.588 1150.15C900.218 1149.93 903.138 1149.04 905.198 1153.47C904.698 1155.83 904.768 1155.69 903.408 1157.69C899.678 1156.66 895.628 1156.57 893.728 1154.14L895.588 1150.15Z" fill="#111112"/>
<path d="M779.823 208.956C786.92 212.407 784.319 217.864 782.596 224.094L780.483 223.763C777.966 218.629 778.844 214.518 779.823 208.956Z" fill="#111112"/>
<path d="M684.087 1186.11C689.872 1186.32 697.856 1186.18 703.242 1187.49L702.785 1189.52C699.539 1191.01 687.761 1189.49 684.259 1188.06L684.087 1186.11Z" fill="#171817"/>
<path d="M475.184 522.248C477.474 522.505 477.405 522.482 479.516 523.4L479.396 524.641C476.206 526.31 475.806 526.161 472.088 526.286C468.82 527.413 468.049 527.715 465.464 525.829L465.96 524.18C469.842 521.654 470.139 522.429 475.184 522.248Z" fill="#111112"/>
<path d="M23.0118 968.352C28.2648 972.192 25.8638 980.572 22.3618 984.922L21.0488 983.172C20.9908 977.922 22.0538 973.512 23.0118 968.352Z" fill="#111112"/>
<path d="M1509.69 7.89243C1514.23 7.35443 1518.7 6.14543 1522.2 8.66443L1522.24 11.6834C1516.52 12.3134 1511.91 13.9964 1509.69 7.89243Z" fill="#111112"/>
<path d="M1491.43 14.6784C1495.55 14.1404 1500.35 14.0754 1504.13 15.8774L1504.93 18.1474C1501.43 18.9764 1499.92 19.3204 1496.36 19.6334C1492.86 18.0114 1493.9 18.4144 1491.43 14.6784Z" fill="#111112"/>
<path d="M1755.35 589.037C1762.97 590.348 1765.47 587.297 1772.74 592.34C1767.23 594.318 1758.8 594.403 1755.35 589.037Z" fill="#111112"/>
<path d="M842.408 87.0214C844.788 87.3674 844.998 87.7834 847.088 89.1024C848.938 91.9724 848.428 94.5094 848.358 98.0294C845.878 97.7284 845.948 97.8654 843.828 96.5994C841.918 93.0254 842.348 91.2544 842.408 87.0214Z" fill="#111112"/>
<path d="M450.784 529.142C453.798 529.046 454.679 528.813 457.495 530.022L457.864 531.545C454.99 534.523 455.737 533.621 451.227 534.959C449.136 534.056 447.648 531.918 445.264 530.388L445.331 530.053L450.784 529.142Z" fill="#111112"/>
<path d="M988.218 42.7234C990.838 43.5614 990.808 43.3644 992.598 45.3964C991.378 48.3464 991.928 47.3614 988.448 49.2474C985.238 48.0064 983.638 47.6024 982.298 44.8934C984.548 42.7454 984.498 43.3824 988.218 42.7234Z" fill="#111112"/>
<path d="M955.438 1179.22C961.728 1179.37 964.058 1178.25 967.788 1183.73L960.278 1184.62C956.858 1183.21 957.788 1183.26 955.438 1179.22Z" fill="#111112"/>
<path d="M1247.59 1244.19C1249.62 1244.2 1248.97 1244.15 1250.93 1244.75L1251.07 1246.67L1249.2 1248.4L1247.65 1247.99C1244.65 1248.82 1243.61 1249.43 1240.69 1248.38L1240.15 1246.88C1243.15 1244.11 1242.73 1244.97 1247.59 1244.19Z" fill="#111112"/>
<path d="M1267.33 191.18C1268.93 191.498 1269.74 191.88 1271.27 192.44L1271.93 194.113C1270.5 196.986 1269.48 198.564 1267.71 201.262C1265.94 200.923 1266.78 201.3 1265.27 199.993C1265.85 196.291 1265.97 194.619 1267.33 191.18Z" fill="#111112"/>
<path d="M1479.45 20.8274C1482.68 21.1024 1483.69 21.1144 1486.89 22.0904L1487.24 23.4444L1484.76 26.3374C1481.6 26.6624 1481.15 26.9974 1478.24 25.7014L1477.68 23.8334L1479.45 20.8274Z" fill="#111112"/>
<path d="M1589.76 424.047C1593.81 427.104 1592.57 432.589 1592.26 437.334C1590.37 436.415 1590.75 436.521 1589.13 435.086C1587.65 431.342 1588.9 428.16 1589.76 424.047Z" fill="#111112"/>
<path d="M1382.26 84.4364C1385.56 84.2174 1388.14 83.4844 1390.36 85.7444L1390.15 89.8954C1387.49 90.2244 1387.07 90.2024 1384.38 90.0294C1382 87.4884 1382.72 88.5324 1382.26 84.4364Z" fill="#111112"/>
<path d="M784.429 1145.21C788.288 1145.33 786.987 1144.56 789.384 1146.43C789.256 1149.53 787.619 1150.87 785.613 1153.34L782.906 1152.51L781.872 1150.34C782.72 1146.51 781.883 1148.14 784.429 1145.21Z" fill="#111112"/>
<path d="M270.202 659.748L274.42 660.425C276.996 663.063 276.087 662.855 276.133 667.949C275.275 668.115 273.327 668.238 272.388 668.322C270.207 666.009 270.636 663.519 270.202 659.748Z" fill="#111112"/>
<path d="M1624 342.259C1626.95 343.883 1625.74 342.748 1627.36 346.138C1627.3 350.298 1627.25 350.428 1625.38 354.219C1623.46 353.579 1624.36 354.06 1622.95 352.242C1622.5 347.672 1622.91 346.851 1624 342.259Z" fill="#111112"/>
<path d="M793.318 173.287C798.418 176.254 797.339 180.262 795.824 184.847C794.419 185.253 795.246 185.204 793.374 184.445C791.949 180.682 792.824 177.395 793.318 173.287Z" fill="#111112"/>
<path d="M1574.29 453.093C1576.64 454.125 1575.8 453.576 1577.49 455.696C1578.22 459.105 1577.48 460.364 1576.43 463.675L1573.31 461.764C1571.9 458.122 1572.95 457.523 1574.29 453.093Z" fill="#111112"/>
<path d="M208.446 766.212C211.44 767.222 210.146 766.382 212.222 769.142C212.733 772.692 211.61 774.412 210.234 777.902C207.045 772.742 207.525 772.242 208.446 766.212Z" fill="#111112"/>
<path d="M221.984 735.217L225.114 737.238C226.474 740.611 225.166 743.85 224.305 747.503C221.211 744.974 220.437 738.628 221.984 735.217Z" fill="#111112"/>
<path d="M1343.47 120.153C1347.08 120.213 1345.97 119.51 1348.22 121.149L1346.94 125.903C1342.3 125.723 1343.38 126.412 1339.98 124.184C1340.49 121.465 1340.37 122.321 1343.47 120.153Z" fill="#111112"/>
<path d="M214.62 749.236L217.503 750.999C219.428 754.071 218.555 757.697 218.239 761.462L216.278 760.418C213.746 756.952 214.253 753.379 214.62 749.236Z" fill="#111112"/>
<path d="M1610.01 380.287C1611.06 380.996 1611.83 381.884 1612.76 382.789C1613.6 386.696 1612.71 387.94 1611.27 391.903C1607.27 387.985 1607.52 384.853 1610.01 380.287Z" fill="#111112"/>
<path d="M810.398 143.481C810.838 144.054 811.098 144.298 811.308 145.084C812.178 148.52 811.868 152.149 810.428 155.389C808.222 154.089 808.379 153.912 807.028 151.663C806.834 148.201 808.483 146.479 810.398 143.481Z" fill="#111112"/>
<path d="M1024.95 72.1154C1027.28 71.9294 1029.62 71.7674 1031.96 71.6294C1034.27 73.7614 1033.54 72.9514 1033.89 77.0454C1027.99 77.6324 1028.09 76.5614 1024.95 72.1154Z" fill="#111112"/>
<path d="M1590.11 1129.44C1593.85 1128.89 1597.81 1127.73 1600.47 1130.7L1599.53 1132.63C1595.94 1132.18 1591.26 1132.96 1589.19 1131.25L1590.11 1129.44Z" fill="#111112"/>
<path d="M1137.3 198.94L1139.64 199.745C1141.11 203.438 1140.96 206.269 1141.16 210.239C1140.31 209.904 1138.96 209.065 1138.12 208.584C1136.27 205.421 1136.99 202.737 1137.3 198.94Z" fill="#111112"/>
<path d="M998.358 50.0584C1000.69 50.0354 1000.53 50.0874 1002.64 51.1304C1002.72 53.9724 1002.38 53.4034 1000.24 56.3284C997.118 55.1784 997.278 55.3374 994.928 53.0134L995.218 51.3584L998.358 50.0584Z" fill="#111112"/>
<path d="M940.378 1174.03C942.758 1173.94 945.148 1173.89 947.528 1173.87C950.518 1175.69 949.538 1174.74 950.938 1178.66C945.948 1178.21 943.158 1178.41 940.378 1174.03Z" fill="#111112"/>
<path d="M1430.62 49.5684C1434.01 49.6084 1434.58 49.6754 1437.92 50.3004L1438.81 52.0394L1437.25 54.6544L1433.25 55.5674L1431.5 54.4154L1430.62 49.5684Z" fill="#111112"/>
<path d="M127.021 1223.98C133.112 1223.11 134.187 1222.18 138.326 1226.77C131.867 1228.14 131.044 1228.9 127.021 1223.98Z" fill="#111112"/>
<path d="M823.778 117.248C827.018 123.106 826.878 122.586 824.498 128.394L821.388 124.186C821.208 120.146 821.318 121.354 823.778 117.248Z" fill="#111112"/>
<path d="M1715.08 1058.97L1721.03 1058.88C1724.31 1060.85 1723.25 1059.71 1724.63 1064C1720.83 1062.83 1718.72 1063.78 1715.14 1061.68L1715.08 1058.97Z" fill="#111112"/>
<path d="M1616.97 363.154L1618.99 364.624C1620.04 368.665 1619.48 369.932 1618.72 374.194L1616.07 372.522C1614.94 368.203 1615.79 367.811 1616.97 363.154Z" fill="#111112"/>
<path d="M144.461 1229.4C148.182 1229.68 149.833 1229.98 152.206 1232.33L152.096 1234.78C149.888 1235.27 149.633 1235.14 147.342 1235.01C144.614 1232.51 145.473 1233.52 144.461 1229.4Z" fill="#111112"/>
<path d="M1468.86 28.1024L1473.55 29.5294L1474.2 31.0874L1471.85 35.2314C1467.72 34.0284 1469.26 35.1504 1466.7 32.3494C1467.01 29.3184 1466.52 30.7794 1468.86 28.1024Z" fill="#111112"/>
<path d="M1414.49 63.9314C1415.94 64.4584 1416.69 64.9384 1418.05 65.6624L1418.24 67.3364L1415.02 71.1404C1411.58 70.0924 1412.75 71.1094 1411.07 68.4134C1412.33 64.8864 1411.32 66.3974 1414.49 63.9314Z" fill="#111112"/>
<path d="M387.525 557.901C392.025 557.69 394.025 557.628 398.084 559.246L398.479 561.194C392.586 563.138 391.501 562.073 387.525 557.901Z" fill="#111112"/>
<path d="M435.379 535.281C438.118 535.658 437.945 535.656 440.359 537.046C440.673 539.88 440.417 539.133 438.189 542.229C435.306 541.059 433.738 540.464 433.417 537.423L435.379 535.281Z" fill="#111112"/>
<path d="M1378.24 91.6104C1378.74 91.9474 1380.06 93.3104 1380.54 93.7854C1379.91 96.7884 1380 95.8974 1376.91 98.3564C1375.21 97.8424 1375.2 97.7634 1373.62 96.9564L1373.68 95.4944L1378.24 91.6104Z" fill="#111112"/>
<path d="M1566.91 465.055L1569.06 466.409C1570.27 470.114 1569.49 472.117 1568.79 476.109L1566.7 474.211C1565.45 470.795 1566.24 468.811 1566.91 465.055Z" fill="#111112"/>
<path d="M1125.72 179.332L1128.03 182.263C1128.48 186.192 1128.75 184.302 1126.85 188.074C1124.4 185.465 1123.01 184.462 1123.32 180.934L1125.72 179.332Z" fill="#111112"/>
<path d="M51.2648 927.142L54.9218 929.763C55.7468 933.153 55.3818 932.262 53.7898 936.232L52.3328 936.212C50.3738 933.132 51.1578 931.332 51.2648 927.142Z" fill="#111112"/>
<path d="M384.371 565.461C384.934 565.816 385.721 566.712 386.233 567.233C384.896 570.042 383.946 569.655 380.289 571.42C379.702 570.543 379.009 569.058 378.504 568.074L379.371 566.612L384.371 565.461Z" fill="#111112"/>
<path d="M556.499 1237.91C560.105 1237.63 561.974 1236.84 564.681 1238.39L564.456 1240.74C560.138 1241.85 560.855 1242.41 557.55 1241.06L556.499 1237.91Z" fill="#111112"/>
<path d="M1120.09 1329.35C1123.16 1329.22 1124.76 1327.91 1127.52 1329.38L1128.41 1332.79C1122.5 1334.14 1122.6 1334.26 1120.09 1329.35Z" fill="#111112"/>
<path d="M1421.9 57.7294C1424.48 57.6324 1425.91 57.7064 1428.44 57.8564L1429.51 59.1754L1428.77 61.4614C1424.82 62.0384 1424.68 62.8224 1422.31 61.1264L1421.9 57.7294Z" fill="#111112"/>
<path d="M1105.72 158.02L1109.84 158.404C1112.19 160.686 1111.44 160.027 1112.01 164.085L1110.08 164.182C1106.83 162.534 1107.65 162.352 1105.72 158.02Z" fill="#111112"/>
<path d="M1018.78 64.6984C1021.8 64.6864 1022.24 64.8014 1025.09 65.3234L1025.79 67.0214L1024.28 69.6124C1021.63 69.1054 1020.38 69.1354 1018.36 67.3424L1018.78 64.6984Z" fill="#111112"/>
<path d="M1115.69 170.766C1117.02 169.935 1118.77 170.282 1119.69 171.558C1120.61 172.835 1120.38 174.603 1119.16 175.601C1118.3 176.308 1117.12 176.477 1116.1 176.042C1115.07 175.606 1114.38 174.636 1114.29 173.527C1114.21 172.418 1114.75 171.354 1115.69 170.766Z" fill="#111112"/>
<path d="M1073.51 113.242L1076.18 115.51C1077.19 119.343 1076.84 118.234 1075.69 122.576C1071.64 118.448 1071.7 118.239 1073.51 113.242Z" fill="#111112"/>
<path d="M348.204 586.686C351.223 586.91 352.777 586.746 355.368 588.328L355.25 590.782C353.148 591.361 352.995 591.294 350.803 591.507C348.024 589.461 349.129 590.825 348.204 586.686Z" fill="#111112"/>
<path d="M1627.58 1122.92C1629.66 1122.69 1628.86 1122.65 1630.89 1123.39C1629.28 1125.93 1628.28 1125.94 1625.37 1127.53C1623.78 1126.58 1623.24 1126.2 1621.8 1125.04L1627.58 1122.92Z" fill="#181818"/>
<path d="M972.388 1217.01L975.098 1218.46C976.528 1221.91 975.798 1222.12 975.238 1226.47L973.588 1225.6C971.658 1222.64 972.368 1221.06 972.388 1217.01Z" fill="#111112"/>
<path d="M1851 918.892C1854.42 919.382 1853.35 918.532 1854.96 920.642L1853.52 925.312C1852.67 926.282 1852.47 926.242 1851.34 926.952C1850.09 925.012 1850.83 921.682 1851 918.892Z" fill="#111112"/>
<path d="M908.108 1158.26C910.408 1159.48 912.428 1161.01 914.568 1162.51L914.588 1164.75C912.858 1164.55 911.448 1164.12 909.748 1163.69C907.468 1160.79 908.208 1162.46 908.108 1158.26Z" fill="#111112"/>
<path d="M1773.18 1014.15C1774.45 1013.77 1775.81 1014.37 1776.39 1015.56C1776.98 1016.75 1776.62 1018.19 1775.54 1018.97C1774.66 1019.6 1773.49 1019.65 1772.56 1019.1C1771.63 1018.55 1771.11 1017.5 1771.25 1016.42C1771.38 1015.35 1772.14 1014.46 1773.18 1014.15Z" fill="#111112"/>
<path d="M1344.22 1172.71L1345.7 1173.19L1346.31 1174.91C1344.05 1177.48 1344.66 1176.7 1341.01 1177.98L1339.36 1177.18L1339.37 1175.67L1344.22 1172.71Z" fill="#111112"/>
<path d="M1195.18 1277.11L1198.37 1278.82L1198.66 1280.49L1196.48 1283.51C1195.6 1283.51 1194.16 1283.32 1193.24 1283.22C1192.51 1280.36 1193.19 1280.67 1195.18 1277.11Z" fill="#111112"/>
<path d="M1066.29 105.974C1067.23 105.761 1068.21 106.075 1068.85 106.794C1069.49 107.512 1069.68 108.523 1069.36 109.43C1069.04 110.337 1068.25 110.998 1067.3 111.154C1065.9 111.387 1064.56 110.458 1064.28 109.057C1064.01 107.656 1064.9 106.291 1066.29 105.974Z" fill="#111112"/>
<path d="M981.018 1305.51C984.938 1309.43 984.368 1309.83 982.888 1314.32C979.538 1309.59 979.098 1310.52 981.018 1305.51Z" fill="#111112"/>
<path d="M1023.8 1352.02C1027.44 1351.65 1028.04 1351.43 1031.51 1352.27L1031.46 1354C1028.73 1355.38 1026.25 1353.37 1023.8 1352.02Z" fill="#111112"/>
<path d="M236.52 715.124L237.91 716.375C239.049 719.733 238.666 718.73 237.434 722.846C234.519 719.377 235.537 719.242 236.52 715.124Z" fill="#111112"/>
</svg>
